<svg id="Group_2" data-name="Group 2" xmlns="http://www.w3.org/2000/svg" xmlns:xlink="http://www.w3.org/1999/xlink" width="327.938" height="97.433" viewBox="0 0 327.938 97.433">
  <defs>
    <clipPath id="clip-path">
      <rect id="Rectangle_4" data-name="Rectangle 4" width="327.938" height="97.433" fill="none"/>
    </clipPath>
  </defs>
  <g id="Group_1" data-name="Group 1" clip-path="url(#clip-path)">
    <path id="Path_1" data-name="Path 1" d="M81.321,64.356c-9.827-5.906-16.615-19.241-14.6-32.182.026.026.051.051.077.081a9.447,9.447,0,0,1,.744-4.306c-.049-.649.42-1.458,1.1-3.416a30.14,30.14,0,0,1,4.483-8.092c.493-.657.718-1.435.116-2.015a2.53,2.53,0,0,0-1.742-.594c-.406.026-.86.566-1.154.975C63.7,24.054,61.524,34.28,64.2,45.334a36.49,36.49,0,0,0,40.077,27.649,34.648,34.648,0,0,0,17.142-6.82c12.061-9.241,17.061-21.558,14.235-36.436C132.79,14.671,123.334,5.243,108.637,1.083,106.792.562,104.857.353,102.964,0H96.62a2.765,2.765,0,0,1-.588.189A36.451,36.451,0,0,0,75.425,9.255a1.611,1.611,0,1,0,2.094,2.429c.168-.128.328-.268.489-.4A33.286,33.286,0,0,1,100.117,3.2c1.944-.006,3.887.316,5.825.487a6.77,6.77,0,0,1-4.627,5.831c-1.431.349-2.887.612-4.343.85-5.567.914-9.862,3.42-11.67,9.138a17.349,17.349,0,0,1-.91,2A26.776,26.776,0,0,0,82.8,18.19a3.824,3.824,0,0,0-4.146-1.646c-1.758.472-4.071,3.011-4.116,4.825a9.586,9.586,0,0,0,.677,3.049A4.292,4.292,0,0,1,75.39,27.6a3.626,3.626,0,0,0,.7,4.018,18.22,18.22,0,0,0,7.252,5.651,6.328,6.328,0,0,0,3.362.521c3-.556,5.176.631,6.92,2.832,1.484,1.875,2.814,3.87,4.2,5.823a8.825,8.825,0,0,0,4.9,3.587,17.738,17.738,0,0,1,4.653,2.382c1.324.88,1.431,1.8.916,3.323a6.129,6.129,0,0,1-3.2,3.753,16.229,16.229,0,0,1-3.357,1.208,17.807,17.807,0,0,0-7.865,3.629c-1.31,1.121-2.516,2.356-3.8,3.51-.251.225-.689.529-.914.448-1.663-.606-3.3-1.294-4.973-1.971.026.026.051.047.079.075-.026-.026-.051-.049-.079-.075l-.126-.051.02-.049m36.5-3.818c.03-.107.057-.217.085-.324a9.917,9.917,0,0,1-3.408,2.984,3.843,3.843,0,0,1-.793.549,33.5,33.5,0,0,1-22.4,3.968,9.495,9.495,0,0,1-.957-.282c2.344-2.234,4.659-4.175,7.781-5.036a32.58,32.58,0,0,0,6.476-2.413c2.619-1.373,3.911-3.887,4.434-6.739a4.952,4.952,0,0,0-1.425-4.258,14.049,14.049,0,0,0-6.944-4.012,5.017,5.017,0,0,1-2.9-2.1C99.14,42.737,97.8,40.7,96.308,38.79a10.147,10.147,0,0,0-6.072-4.122,25.769,25.769,0,0,0-3.457-.13,6.42,6.42,0,0,1-2.131-.225,15.333,15.333,0,0,1-5.886-4.529,1.422,1.422,0,0,1-.288-1.127,7.214,7.214,0,0,0-.353-5.547,2.221,2.221,0,0,1,.706-2.96c.752-.653,1.152-.629,1.62.27a10.712,10.712,0,0,1,.531,1.484,15.418,15.418,0,0,0,.661,1.882,2.668,2.668,0,0,0,4.333.815,6.309,6.309,0,0,0,1.214-1.581,14.08,14.08,0,0,0,1.2-2.577c1.273-4.025,4.207-5.981,8.169-6.707,1.521-.278,3.035-.594,4.56-.85,4.116-.693,6.407-3.366,7.753-7.078.13-.359.2-.738.383-1.4,2,.847,3.907,1.636,5.792,2.474a.676.676,0,0,1,.26.276,12.846,12.846,0,0,1,4.069,2.419c18.036,12.6,18.343,39.834,1.216,52.809" transform="translate(-50.636)" fill="#59b270"/>
    <path id="Path_2" data-name="Path 2" d="M323.62,30.36c-.448,2.65-.58,5.095,1.058,7.374a18.525,18.525,0,0,1,2.157,2.924,4.761,4.761,0,0,1-.349,3.927C325.4,47.018,323.969,49.128,324,51.9a9.78,9.78,0,0,0,2.358,6.251c1.7,1.965,4.2,3.074,5.584,5.33,1.687,2.745,1.338,5.827.306,8.736-1.792,5.042-5.221,10.182-3.011,15.686.677,1.683,3.437.949,2.753-.76-2.194-5.462,2.165-10.664,3.512-15.762a12.168,12.168,0,0,0-.253-7.6,13.322,13.322,0,0,0-4.637-5.626c-2.078-1.64-3.72-3.443-3.761-6.251-.039-2.678,1.79-4.763,2.642-7.189a6.876,6.876,0,0,0-.927-6.63,23.493,23.493,0,0,1-1.928-2.546c-.758-1.4-.521-2.922-.268-4.422.3-1.8-2.449-2.569-2.753-.76" transform="translate(-259.525 -23.534)" fill="#59b270"/>
    <path id="Path_3" data-name="Path 3" d="M76.146,120.665c1.141,4.848,2.674,10.332,5.711,14.377a12.441,12.441,0,0,0,5.722,4.179c2.325.89,4.852,1.269,7.064,2.449,2.429,1.3,2.962,3.258,4.185,5.511a7.381,7.381,0,0,0,1.944,2.336c.626.5,1.985,1.085,2.145,1.938.223,1.192-1.577,2.417-2.366,3.07-.991.821-2.05,1.567-2.97,2.473a8.052,8.052,0,0,0-2.739,6.366c.168,1.815,3.025,1.831,2.855,0-.525-5.665,8.647-6.575,8.086-12.145-.223-2.2-2.216-2.865-3.6-4.219-1.661-1.632-1.924-4.219-3.578-5.932-3.6-3.728-9.462-2.988-13.211-6.33-1.924-1.719-3.015-4.241-3.943-6.589a59.5,59.5,0,0,1-2.555-8.24c-.42-1.788-3.175-1.03-2.753.76" transform="translate(-61.086 -95.429)" fill="#59b270"/>
    <path id="Path_4" data-name="Path 4" d="M24.965,345.516c-1.5-1.024-14.669-10.072-16.848-12.248-2.449-2.449-6.135-11.356-6.82-14.087C-.429,312.27-.048,311.7.288,311.2l.049-.075a3.588,3.588,0,0,1,3.287-1.772c1.7,0,2.9,1.954,5.115,6.624.262.555.588,1.239.712,1.446.15.156,1.012.991,5.456,4.876a5.235,5.235,0,0,1,.365-1.847c.712-1.782,2.926-1.969,4.8-1.366l.341.109,8.011,8.284c1.9.813,10.587,4.6,12.982,6.991,2.721,2.721,3.149,8.667,3.189,9.336l-2.849.17c-.093-1.519-.7-5.827-2.358-7.487-1.819-1.819-9.527-5.306-12.343-6.5l-.268-.114-7.891-8.156a3.087,3.087,0,0,0-1.016-.073,2.906,2.906,0,0,0-.063,1.334l8.489,9.533-2.027,2-7.37-6.7c-.118-.1-1.046-.906-2.277-1.979-6.92-6.026-7.27-6.464-7.419-6.652A11.934,11.934,0,0,1,6.16,317.2c-.566-1.19-2.019-4.248-2.788-4.982a.64.64,0,0,0-.517.274,48.8,48.8,0,0,0,1.214,5.995c.665,2.66,4.239,10.93,6.068,12.759,1.685,1.685,12.439,9.168,16.441,11.913l-1.612,2.356ZM2.679,312.755l-.016.024.016-.024" transform="translate(0 -248.303)" fill="#59b270"/>
    <path id="Path_5" data-name="Path 5" d="M125.081,482.63a1.457,1.457,0,0,0,.4.193,1.058,1.058,0,0,0,.436.051,1.178,1.178,0,0,0,.987-.6,2.107,2.107,0,0,0,.209-.805,1.529,1.529,0,0,0,.012-.268,1.943,1.943,0,0,0-.045-.322,1.741,1.741,0,0,0-.116-.3.818.818,0,0,0-1.085-.284.807.807,0,0,0-.365.474c-.01.071-.02.14-.03.209a.8.8,0,0,0,.109.4l.008.018c-.026-.063-.051-.126-.079-.189a.647.647,0,0,1,.043.164c-.01-.069-.02-.14-.028-.209a1.542,1.542,0,0,1-.018.381c.01-.071.02-.14.03-.209a1.117,1.117,0,0,1-.069.288c.026-.063.053-.126.079-.189a.585.585,0,0,1-.055.1l.124-.162a.372.372,0,0,1-.067.069l.162-.124a.48.48,0,0,1-.087.051l.189-.079a.573.573,0,0,1-.114.03l.209-.03a.59.59,0,0,1-.118,0l.209.03a.643.643,0,0,1-.16-.045l.189.079a.814.814,0,0,1-.16-.095.6.6,0,0,0-.294-.095.812.812,0,0,0-.789.379.8.8,0,0,0-.079.612l.079.189a.8.8,0,0,0,.284.284" transform="translate(-100.086 -385.446)" fill="#59b270"/>
    <path id="Path_6" data-name="Path 6" d="M121.9,427.32a2.218,2.218,0,0,0,.253.109.687.687,0,0,0,.091.028,2.691,2.691,0,0,0,.278.039.67.67,0,0,0,.089,0,2.622,2.622,0,0,0,.278-.034.621.621,0,0,0,.087-.018,3.439,3.439,0,0,0,.339-.144.8.8,0,0,0,.067-.045,2.039,2.039,0,0,0,.217-.174,2.065,2.065,0,0,0,.174-.219.505.505,0,0,0,.047-.077,2.375,2.375,0,0,0,.109-.253.44.44,0,0,0,.026-.087,2.324,2.324,0,0,0,.041-.286.7.7,0,0,0,0-.091,2.44,2.44,0,0,0-.036-.294.818.818,0,0,0-.022-.095,2.223,2.223,0,0,0-.112-.274.5.5,0,0,0-.051-.089l-1.245.961.022.028-.124-.16a1.228,1.228,0,0,1,.146.239l.124.16a.6.6,0,0,0,.255.164.376.376,0,0,0,.2.051.592.592,0,0,0,.316-.014l.189-.079.16-.124a.884.884,0,0,0,.233-.56,2.264,2.264,0,0,0-.041-.282,1.521,1.521,0,0,0-.1-.257,1.119,1.119,0,0,0-.215-.292l-.16-.124a.6.6,0,0,0-.294-.095.417.417,0,0,0-.209,0,.6.6,0,0,0-.294.095.908.908,0,0,0-.3.3.923.923,0,0,0-.083.2c-.01.071-.02.14-.03.209a.819.819,0,0,0,.049.3c.051.138.116.268.174.4-.026-.063-.053-.126-.079-.189a.86.86,0,0,1,.057.184c-.01-.071-.02-.14-.03-.209a.48.48,0,0,1,0,.13c.01-.071.02-.14.028-.209a.377.377,0,0,1-.022.081c.026-.063.051-.126.079-.189a.318.318,0,0,1-.041.071l.124-.162a.263.263,0,0,1-.041.039l.16-.124a.544.544,0,0,1-.1.055l.189-.079a3.24,3.24,0,0,0-.393.164.765.765,0,0,0-.379.789.577.577,0,0,0,.095.294.8.8,0,0,0,.474.365.846.846,0,0,0,.612-.079l.051-.026-.189.079a2.339,2.339,0,0,0,.422-.18,1.2,1.2,0,0,0,.359-.359.947.947,0,0,0,.065-.144.866.866,0,0,0,.057-.156,2.356,2.356,0,0,0,.036-.26v-.065a2.352,2.352,0,0,0-.034-.26.493.493,0,0,0-.018-.073,5.049,5.049,0,0,0-.2-.476c.026.063.051.126.079.189a.429.429,0,0,1-.032-.089l.03.209v-.024l-.03.209,0-.01c-.026.063-.051.126-.079.189l.006-.008-.284.284.008-.006-.961-.124c.012.012.022.024.032.035l-.124-.162a.559.559,0,0,1,.065.11l-.079-.189a.538.538,0,0,1,.03.107c-.01-.071-.02-.14-.03-.209v.016l1.478-.4a2.165,2.165,0,0,0-.29-.426.888.888,0,0,0-.56-.233l-.209.03a.6.6,0,0,0-.27.142.378.378,0,0,0-.142.142.621.621,0,0,0-.142.268c-.01.071-.02.14-.028.209a.8.8,0,0,0,.109.4.657.657,0,0,1,.069.12c-.026-.063-.051-.126-.079-.189a.653.653,0,0,1,.043.162c-.01-.071-.02-.14-.028-.209a.7.7,0,0,1,0,.182c.01-.071.02-.14.03-.209a.644.644,0,0,1-.045.16l.079-.189a.54.54,0,0,1-.077.13l.124-.16a.638.638,0,0,1-.1.1l.16-.124a.636.636,0,0,1-.142.083l.189-.079a.734.734,0,0,1-.172.045l.209-.028a.757.757,0,0,1-.164,0l.209.03a.7.7,0,0,1-.156-.041l.189.079-.049-.024a.835.835,0,0,0-.612-.079.882.882,0,0,0-.474.365.793.793,0,0,0,.284,1.085" transform="translate(-97.529 -341.074)" fill="#59b270"/>
    <path id="Path_7" data-name="Path 7" d="M211.81,480.621a1.1,1.1,0,0,0,.288.5,1.652,1.652,0,0,0,.227.18.69.69,0,0,0,.083.047,1.536,1.536,0,0,0,.4.146,1.886,1.886,0,0,0,.316.038,1.535,1.535,0,0,0,.316-.035,1.238,1.238,0,0,0,.373-.142,1.587,1.587,0,0,0,.229-.168.919.919,0,0,0,.079-.073,1.362,1.362,0,0,0,.294-.513c.026-.077.036-.16.067-.235l-.079.189.008-.01-.284.284.01-.006-.4.109h.012l-.4-.109.01.006-.162-.124.008.008-.124-.16.006.012L213,480.37a.124.124,0,0,1,.006.026c-.01-.071-.02-.14-.028-.209a.759.759,0,0,1,0,.095c.01-.071.02-.14.028-.209a.636.636,0,0,1-.038.146l.079-.189a.647.647,0,0,1-.073.13l.124-.16a.583.583,0,0,1-.1.1l.162-.124a.726.726,0,0,1-.114.067l.189-.079a.579.579,0,0,1-.162.043l.209-.03a.736.736,0,0,1-.132,0,.873.873,0,0,0-.56.233.792.792,0,0,0,0,1.121l.162.124a.787.787,0,0,0,.4.109,1.229,1.229,0,0,0,.406-.039,1.292,1.292,0,0,0,.665-.408,1.472,1.472,0,0,0,.288-.507.578.578,0,0,0,.026-.1,1.838,1.838,0,0,0,.036-.294.827.827,0,0,0-.783-.872.836.836,0,0,0-.262.028.91.91,0,0,0-.28.148.581.581,0,0,0-.2.223.335.335,0,0,0-.047.1c-.018.041-.037.083-.051.126-.026.079-.039.164-.071.241l.079-.189a.56.56,0,0,1-.065.11l.124-.162a.617.617,0,0,1-.089.087l.162-.124a.778.778,0,0,1-.124.071l.189-.079a.626.626,0,0,1-.148.038l.209-.03a.813.813,0,0,1-.17,0l.209.028a.82.82,0,0,1-.2-.057l.189.079a.686.686,0,0,1-.138-.081l.16.124a.51.51,0,0,1-.073-.073l.124.16a.218.218,0,0,1-.034-.059l.079.189a.36.36,0,0,1-.016-.049.792.792,0,0,0-1.448-.189.826.826,0,0,0-.079.612" transform="translate(-169.992 -384.758)" fill="#59b270"/>
    <path id="Path_8" data-name="Path 8" d="M128.637,481.654l.01.006-.16-.124a.209.209,0,0,1,.03.03l-.124-.16a.231.231,0,0,1,.022.038c-.026-.063-.051-.126-.079-.189a.339.339,0,0,1,.02.077c-.01-.071-.02-.14-.028-.209a2.083,2.083,0,0,1,.008.223,1.769,1.769,0,0,1-.006.251c.01-.071.02-.14.03-.209a.381.381,0,0,1-.026.093l.079-.189a.441.441,0,0,1-.032.051l.124-.162a.3.3,0,0,1-.043.043l.162-.124a.226.226,0,0,1-.022.014.762.762,0,0,0-.379.789.577.577,0,0,0,.095.294.8.8,0,0,0,.474.365l.209.028a.8.8,0,0,0,.4-.109.949.949,0,0,0,.1-.075c.026-.02.069-.051.1-.077a1.191,1.191,0,0,0,.152-.193.4.4,0,0,0,.028-.049,1.672,1.672,0,0,0,.095-.231,1.629,1.629,0,0,0,.043-.489v-.146a2.065,2.065,0,0,0-.036-.312.393.393,0,0,0-.01-.051c0-.01-.006-.018-.01-.026a1.951,1.951,0,0,0-.085-.2.148.148,0,0,0-.014-.024.885.885,0,0,0-.065-.085c-.024-.028-.045-.059-.069-.089l-.016-.016a1.463,1.463,0,0,0-.178-.136.6.6,0,0,0-.294-.095.812.812,0,0,0-.789.379.8.8,0,0,0-.079.612l.079.189a.8.8,0,0,0,.284.284" transform="translate(-102.913 -385.428)" fill="#59b270"/>
    <path id="Path_9" data-name="Path 9" d="M128.766,483.079a1.105,1.105,0,0,0,.312-.138,2.214,2.214,0,0,0,.2-.156.37.37,0,0,0,.047-.049,1.435,1.435,0,0,0,.33-.606c.014-.059.02-.12.028-.18s.018-.126.022-.189a1.335,1.335,0,0,0-.008-.178,1.507,1.507,0,0,0-.055-.337,1.186,1.186,0,0,0-.1-.235.99.99,0,0,0-.32-.32.6.6,0,0,0-.294-.095.812.812,0,0,0-.789.379.8.8,0,0,0-.079.612l.079.189a.8.8,0,0,0,.284.284l.01.008-.16-.124s.018.018.026.028l-.124-.162a.2.2,0,0,1,.024.045c-.028-.063-.053-.126-.079-.189a.473.473,0,0,1,.024.1c-.01-.071-.02-.14-.03-.209a1.278,1.278,0,0,1,0,.288c.01-.071.02-.14.03-.209a.794.794,0,0,1-.045.176c.028-.063.053-.126.079-.189a.671.671,0,0,1-.075.132l.124-.162a.616.616,0,0,1-.087.089l.16-.124a.653.653,0,0,1-.093.057l.189-.079a.543.543,0,0,1-.051.02.827.827,0,0,0-.474.365.6.6,0,0,0-.095.294.613.613,0,0,0,.014.316.794.794,0,0,0,.975.554" transform="translate(-102.552 -385.757)" fill="#59b270"/>
    <path id="Path_10" data-name="Path 10" d="M291.442,345.54l-1.614-2.356c4-2.743,14.756-10.227,16.441-11.913,1.829-1.829,5.4-10.1,6.068-12.759a48.434,48.434,0,0,0,1.214-5.995.642.642,0,0,0-.517-.274c-.77.734-2.224,3.793-2.788,4.982a11.936,11.936,0,0,1-1.048,1.987c-.15.187-.5.626-7.419,6.654-1.231,1.073-2.157,1.875-2.277,1.979l-7.37,6.7-2.027-2,8.491-9.533a2.852,2.852,0,0,0-.063-1.334,3.087,3.087,0,0,0-1.016.075l-7.891,8.157-.268.114c-2.816,1.19-10.523,4.677-12.343,6.5-1.659,1.659-2.273,6.072-2.358,7.487l-2.849-.17c.039-.669.47-6.616,3.189-9.336,2.4-2.4,11.08-6.18,12.982-6.991l8.011-8.284.341-.111c1.879-.6,4.093-.416,4.8,1.366a5.278,5.278,0,0,1,.365,1.847c3.538-3.1,5.136-4.546,5.46-4.884.126-.215.448-.89.708-1.439,2.218-4.671,3.42-6.624,5.115-6.624a3.589,3.589,0,0,1,3.287,1.772l.049.075c.335.5.716,1.075-1.01,7.984-.683,2.731-4.373,11.64-6.82,14.085-2.178,2.178-15.352,11.224-16.848,12.248m22.286-32.758.016.024Z" transform="translate(-218.171 -248.327)" fill="#59b270"/>
    <path id="Path_11" data-name="Path 11" d="M362.018,481.219a.826.826,0,0,1-.162.095l.189-.079a.643.643,0,0,1-.16.045l.209-.03a.6.6,0,0,1-.118,0l.209.03a.576.576,0,0,1-.114-.03l.189.079a.476.476,0,0,1-.087-.051l.16.124a.372.372,0,0,1-.067-.069l.124.162a.582.582,0,0,1-.055-.1l.079.189a1.117,1.117,0,0,1-.069-.288c.01.071.02.14.03.209a1.537,1.537,0,0,1-.018-.381c-.01.071-.02.14-.03.209a.694.694,0,0,1,.043-.164l-.079.189.008-.018a.6.6,0,0,0,.095-.294.816.816,0,0,0-.379-.789.8.8,0,0,0-.612-.079l-.189.079a.8.8,0,0,0-.284.284,1.927,1.927,0,0,0-.118.3,1.969,1.969,0,0,0-.045.322,1.352,1.352,0,0,0,.012.268,2.046,2.046,0,0,0,.209.805,1.18,1.18,0,0,0,.987.6,1.124,1.124,0,0,0,.436-.051,1.456,1.456,0,0,0,.4-.193.6.6,0,0,0,.223-.2.715.715,0,0,0,.156-.586.577.577,0,0,0-.095-.294.8.8,0,0,0-.474-.365.783.783,0,0,0-.612.079" transform="translate(-289.576 -385.408)" fill="#59b270"/>
    <path id="Path_12" data-name="Path 12" d="M364.681,425.938l-.049.024.189-.079a.7.7,0,0,1-.156.041l.209-.03a.761.761,0,0,1-.164,0l.209.028a.735.735,0,0,1-.172-.045l.189.079a.739.739,0,0,1-.142-.083l.162.124a.637.637,0,0,1-.1-.1l.124.16a.58.58,0,0,1-.077-.13l.079.189a.639.639,0,0,1-.043-.16c.01.071.02.14.028.209a.7.7,0,0,1,0-.182c-.01.071-.02.14-.03.209a.679.679,0,0,1,.043-.162l-.081.189a.612.612,0,0,1,.069-.12.583.583,0,0,0,.095-.294.592.592,0,0,0-.014-.316c-.026-.063-.051-.126-.079-.189a.6.6,0,0,0-.2-.223.4.4,0,0,0-.176-.1.611.611,0,0,0-.306-.069l-.209.03a.783.783,0,0,0-.349.2,2.086,2.086,0,0,0-.29.426l1.478.4v-.016c-.01.071-.02.14-.028.209a.472.472,0,0,1,.03-.107l-.079.189a.554.554,0,0,1,.063-.111l-.124.162c.01-.012.02-.024.032-.035l-.961.124.008.006-.284-.284.006.008c-.026-.063-.051-.126-.079-.189l0,.01c-.01-.071-.02-.14-.028-.209v.024c.01-.071.02-.14.03-.209a.535.535,0,0,1-.032.089c.026-.063.051-.126.079-.189-.067.156-.146.306-.2.47a1.466,1.466,0,0,0-.051.335v.065a1.97,1.97,0,0,0,.036.266.356.356,0,0,0,.018.061,1.3,1.3,0,0,0,.1.233l.02.03c.041.059.085.116.132.172a1.243,1.243,0,0,0,.2.162,1.3,1.3,0,0,0,.292.132l.138.051-.189-.079a.408.408,0,0,1,.051.026.836.836,0,0,0,.612.081.6.6,0,0,0,.27-.142.582.582,0,0,0,.2-.223.791.791,0,0,0-.284-1.085,3.578,3.578,0,0,0-.393-.164l.189.079a.5.5,0,0,1-.1-.055l.162.124c-.014-.012-.028-.026-.041-.039l.124.162a.259.259,0,0,1-.041-.071l.079.189a.538.538,0,0,1-.022-.081c.01.071.02.14.03.209a.465.465,0,0,1,0-.128c-.01.069-.02.14-.028.209a.822.822,0,0,1,.055-.184c-.026.063-.053.126-.079.189.059-.134.12-.266.174-.4a.783.783,0,0,0,.051-.294.834.834,0,0,0-.112-.416.856.856,0,0,0-.3-.3l-.189-.079a.593.593,0,0,0-.316-.014.4.4,0,0,0-.2.051.592.592,0,0,0-.255.164,1.835,1.835,0,0,0-.17.217.367.367,0,0,0-.043.077,1.947,1.947,0,0,0-.1.249,1.771,1.771,0,0,0-.043.29l.03.209a.617.617,0,0,0,.142.27.408.408,0,0,0,.142.142.62.62,0,0,0,.268.142l.209.028.209-.028a.881.881,0,0,0,.474-.365,1.394,1.394,0,0,1,.144-.239l-.124.16.022-.028-1.245-.961a1.4,1.4,0,0,0-.156.335,1.523,1.523,0,0,0-.063.365,1.468,1.468,0,0,0,.032.371,1.365,1.365,0,0,0,.333.647,1.332,1.332,0,0,0,.28.235,1.46,1.46,0,0,0,1.087.185.558.558,0,0,0,.1-.026,1.925,1.925,0,0,0,.27-.116.6.6,0,0,0,.223-.2.715.715,0,0,0,.156-.586.577.577,0,0,0-.095-.294.8.8,0,0,0-.474-.365l-.209-.03a.8.8,0,0,0-.4.109" transform="translate(-291.616 -341.062)" fill="#59b270"/>
    <path id="Path_13" data-name="Path 13" d="M273.139,480.149a.474.474,0,0,1-.016.049l.079-.189c-.01.02-.022.039-.034.059l.124-.162a.427.427,0,0,1-.073.073l.16-.124a.576.576,0,0,1-.138.081l.189-.079a.822.822,0,0,1-.2.057l.209-.03a.813.813,0,0,1-.17,0l.209.028a.628.628,0,0,1-.148-.038l.189.079a.778.778,0,0,1-.124-.071l.162.124a.53.53,0,0,1-.089-.087l.124.16a.562.562,0,0,1-.065-.111l.079.189c-.03-.075-.043-.156-.067-.231a1.015,1.015,0,0,0-.225-.4.8.8,0,0,0-.793-.211.868.868,0,0,0-.5.385.9.9,0,0,0-.118.452,1.22,1.22,0,0,0,.061.4,1.4,1.4,0,0,0,.225.426,1.336,1.336,0,0,0,.359.332,1.221,1.221,0,0,0,.178.085,1.468,1.468,0,0,0,.184.071,1.762,1.762,0,0,0,.3.043.533.533,0,0,0,.112,0,.873.873,0,0,0,.56-.233.792.792,0,0,0,0-1.121.769.769,0,0,0-.56-.233.741.741,0,0,1-.132,0l.209.028a.653.653,0,0,1-.162-.043l.189.079a.544.544,0,0,1-.112-.067l.16.124a.584.584,0,0,1-.1-.1l.124.162a.707.707,0,0,1-.073-.13c.026.063.053.126.079.189a.611.611,0,0,1-.038-.146c.01.071.02.14.028.209,0-.032,0-.063,0-.095-.01.071-.02.14-.028.209a.055.055,0,0,1,.006-.026l-.079.189.006-.012-.124.162.008-.01-.162.124.01,0-.4.109h.012l-.4-.109.01.006-.284-.284.008.01-.079-.189c.032.075.041.156.067.235a1.363,1.363,0,0,0,.29.505,1.175,1.175,0,0,0,.3.245,1.725,1.725,0,0,0,.27.118,1.006,1.006,0,0,0,.11.03,1.7,1.7,0,0,0,.316.036,2.272,2.272,0,0,0,.306-.036,1.606,1.606,0,0,0,.4-.144,1.191,1.191,0,0,0,.32-.231.3.3,0,0,0,.039-.032,1.483,1.483,0,0,0,.142-.189.881.881,0,0,0,.055-.124,1.281,1.281,0,0,0,.057-.144.835.835,0,0,0-.079-.612.794.794,0,0,0-1.45.189" transform="translate(-218.251 -384.708)" fill="#59b270"/>
    <path id="Path_14" data-name="Path 14" d="M361.456,480.277a1.193,1.193,0,0,0-.193.152,1.382,1.382,0,0,0-.13.17l-.014.022a.919.919,0,0,0-.1.276,2.811,2.811,0,0,0-.037.464v.142a.407.407,0,0,0,0,.069,1.792,1.792,0,0,0,.039.27.891.891,0,0,0,.057.142.878.878,0,0,0,.065.138,1.669,1.669,0,0,0,.136.176.235.235,0,0,0,.022.024,1.144,1.144,0,0,0,.2.154.816.816,0,0,0,1.085-.284.8.8,0,0,0,.079-.612.835.835,0,0,0-.365-.474.132.132,0,0,1-.022-.014l.16.124a.3.3,0,0,1-.043-.043l.124.162a.448.448,0,0,1-.032-.051l.079.189a.381.381,0,0,1-.026-.093c.01.071.02.14.028.209a1.767,1.767,0,0,1-.006-.251,2.1,2.1,0,0,1,.008-.223c-.01.071-.02.14-.03.209a.368.368,0,0,1,.02-.077c-.028.063-.053.126-.079.189a.142.142,0,0,1,.022-.038l-.124.16a.149.149,0,0,1,.032-.03l-.16.124.01-.006a.6.6,0,0,0,.223-.2.715.715,0,0,0,.156-.586.577.577,0,0,0-.095-.294.8.8,0,0,0-.474-.365l-.209-.03a.8.8,0,0,0-.4.109" transform="translate(-289.746 -385.42)" fill="#59b270"/>
    <path id="Path_15" data-name="Path 15" d="M361.589,481.495a.389.389,0,0,1-.051-.02l.189.079a.468.468,0,0,1-.095-.057l.162.124a.527.527,0,0,1-.087-.089l.124.162a.681.681,0,0,1-.077-.132c.028.063.053.126.079.189a.8.8,0,0,1-.045-.176c.01.071.02.14.028.209a1.174,1.174,0,0,1,0-.288c-.01.071-.02.14-.028.209a.473.473,0,0,1,.024-.1l-.079.189a.2.2,0,0,1,.024-.045l-.124.162a.171.171,0,0,1,.026-.028L361.5,482l.01-.008a.765.765,0,0,0,.379-.789.577.577,0,0,0-.095-.294.8.8,0,0,0-.474-.365l-.209-.028a.8.8,0,0,0-.4.109,1.377,1.377,0,0,0-.18.14c-.03.032-.051.067-.079.1a.85.85,0,0,0-.166.312,1.549,1.549,0,0,0-.051.33,1.652,1.652,0,0,0,.041.556.544.544,0,0,0,.024.081,2.284,2.284,0,0,0,.1.249,1.413,1.413,0,0,0,.2.272,1.211,1.211,0,0,0,.257.213.581.581,0,0,0,.059.035,1.6,1.6,0,0,0,.255.1.592.592,0,0,0,.316.014.577.577,0,0,0,.294-.095.6.6,0,0,0,.223-.2.609.609,0,0,0,.142-.268.808.808,0,0,0-.079-.612.841.841,0,0,0-.474-.365" transform="translate(-289.145 -385.701)" fill="#59b270"/>
    <path id="Path_16" data-name="Path 16" d="M109.268,75.565a.793.793,0,1,0-.764-.764.792.792,0,0,0,.764.764" transform="translate(-87.093 -59.382)" fill="#59b270"/>
    <path id="Path_17" data-name="Path 17" d="M109.448,75.5a.793.793,0,1,0-.764-.764.792.792,0,0,0,.764.764" transform="translate(-87.237 -59.334)" fill="#59b270"/>
    <path id="Path_18" data-name="Path 18" d="M109.208,75.995a.793.793,0,1,0-.764-.764.792.792,0,0,0,.764.764" transform="translate(-87.045 -59.727)" fill="#59b270"/>
    <path id="Path_19" data-name="Path 19" d="M109.328,75.745a.793.793,0,1,0-.764-.764.792.792,0,0,0,.764.764" transform="translate(-87.141 -59.526)" fill="#59b270"/>
    <path id="Path_20" data-name="Path 20" d="M109.578,75.445a.793.793,0,1,0-.764-.764.792.792,0,0,0,.764.764" transform="translate(-87.342 -59.285)" fill="#59b270"/>
    <path id="Path_21" data-name="Path 21" d="M110.145,74.907l.012-.012a.766.766,0,0,0,.164-.868.591.591,0,0,0-.164-.255l-.16-.124a.8.8,0,0,0-.4-.109l-.209.028a.8.8,0,0,0-.351.205l-.012.012a.77.77,0,0,0-.164.866.6.6,0,0,0,.164.255l.162.124a.792.792,0,0,0,.4.109l.209-.03a.8.8,0,0,0,.349-.2" transform="translate(-87.325 -59.029)" fill="#59b270"/>
    <path id="Path_22" data-name="Path 22" d="M110.068,74.825a.793.793,0,1,0-.764-.764.792.792,0,0,0,.764.764" transform="translate(-87.735 -58.788)" fill="#59b270"/>
    <path id="Path_23" data-name="Path 23" d="M109.028,76.615a.793.793,0,1,0-.764-.764.792.792,0,0,0,.764.764" transform="translate(-86.9 -60.225)" fill="#59b270"/>
    <path id="Path_24" data-name="Path 24" d="M109.388,75.745a.793.793,0,1,0-.764-.764.792.792,0,0,0,.764.764" transform="translate(-87.189 -59.526)" fill="#59b270"/>
    <path id="Path_25" data-name="Path 25" d="M108.6,48.123a3.543,3.543,0,0,0-1.4,1.146,4.677,4.677,0,0,0-.4.695,1.219,1.219,0,0,1-.095.164l.008-.012a.745.745,0,0,1-.081.077c-.059.057.069-.043-.045.037l-.184.13A8.447,8.447,0,0,0,104.005,53a.793.793,0,1,0,1.369.8,7.713,7.713,0,0,1,.428-.671c.037-.051.073-.1.112-.152-.089.116.061-.073.063-.077.079-.1.162-.193.249-.286a7.563,7.563,0,0,1,.566-.558c.095-.085.191-.166.29-.245.063-.051-.063.043.049-.037l.184-.132a2.719,2.719,0,0,0,.726-.683c.146-.217.233-.466.375-.687.032-.051.067-.1.1-.148-.093.128.045-.049.057-.061a3.4,3.4,0,0,1,.257-.249c.164-.148-.118.071.065-.051l.12-.079a3.024,3.024,0,0,1,.381-.2.794.794,0,0,0,.284-1.085.818.818,0,0,0-1.085-.282" transform="translate(-83.395 -38.545)" fill="#59b270"/>
    <path id="Path_26" data-name="Path 26" d="M110.328,47.885a7.717,7.717,0,0,1-1.237,1.156c.075-.057-.055.041-.077.057l-.17.128c-.114.085-.227.172-.339.26-.257.2-.513.395-.758.606a11.965,11.965,0,0,0-1.216,1.275l-1.32,1.529a.811.811,0,0,0,0,1.121.8.8,0,0,0,1.121,0l1.289-1.492a12.28,12.28,0,0,1,1.251-1.312c.438-.379.819-.643,1.31-1.026a7.9,7.9,0,0,0,1.269-1.18.814.814,0,0,0,0-1.121.8.8,0,0,0-1.121,0" transform="translate(-84.269 -38.253)" fill="#59b270"/>
    <path id="Path_27" data-name="Path 27" d="M107.285,47.9a4.4,4.4,0,0,1-.568.48,3.835,3.835,0,0,0-.608.693c-.331.454-.639.923-.971,1.375s-.606.807-.953,1.235a7.568,7.568,0,0,1-.513.586,2.9,2.9,0,0,1-.27.247c.065-.051-.008,0-.034.022-.069.045-.136.087-.209.126a.8.8,0,0,0-.284,1.085.808.808,0,0,0,1.085.284,4.445,4.445,0,0,0,1.241-1.1c.393-.476.77-.965,1.139-1.458.339-.456.667-.92.991-1.389a2.59,2.59,0,0,1,.444-.529l.063-.051c-.041.03-.039.03,0,0l.26-.2a2.527,2.527,0,0,0,.306-.276.793.793,0,0,0-1.089-1.152c-.01.01-.022.02-.032.032" transform="translate(-82.489 -38.251)" fill="#59b270"/>
    <path id="Path_28" data-name="Path 28" d="M101.739,50.026A14.857,14.857,0,0,1,104.3,46.77a12.2,12.2,0,0,1,3.136-2.573.793.793,0,0,0-.8-1.369,13.531,13.531,0,0,0-3.457,2.82,16.4,16.4,0,0,0-2.8,3.576c-.485.9.886,1.7,1.369.8" transform="translate(-80.482 -34.289)" fill="#59b270"/>
    <path id="Path_29" data-name="Path 29" d="M108.63,54.115a8.473,8.473,0,0,1,1.1-1.346l1.283-1.5a19.755,19.755,0,0,1,2.465-2.528.8.8,0,0,0,0-1.121.811.811,0,0,0-1.121,0,20.357,20.357,0,0,0-2.53,2.6l-1.291,1.5a9.132,9.132,0,0,0-1.277,1.585.812.812,0,0,0,.284,1.085.8.8,0,0,0,1.085-.284" transform="translate(-86.013 -38.047)" fill="#59b270"/>
    <path id="Path_30" data-name="Path 30" d="M103.2,50.919a18.082,18.082,0,0,1,2.1-2.536,26.355,26.355,0,0,1,2.506-2.417.8.8,0,0,0,0-1.121.811.811,0,0,0-1.121,0,27.074,27.074,0,0,0-2.571,2.486,19.936,19.936,0,0,0-2.285,2.786.8.8,0,0,0,.284,1.085.812.812,0,0,0,1.085-.284" transform="translate(-81.655 -35.815)" fill="#59b270"/>
    <path id="Path_31" data-name="Path 31" d="M110.212,52.362c-1.563,1.654-3.2,3.266-4.631,5.038a.811.811,0,0,0,0,1.121.8.8,0,0,0,1.121,0c1.431-1.772,3.068-3.386,4.631-5.038a.793.793,0,0,0-1.089-1.152c-.01.01-.022.02-.032.032" transform="translate(-84.566 -41.831)" fill="#59b270"/>
    <path id="Path_32" data-name="Path 32" d="M128.968,54.7a.793.793,0,1,0-.764-.764.792.792,0,0,0,.764.764" transform="translate(-102.905 -42.638)" fill="#59b270"/>
    <path id="Path_33" data-name="Path 33" d="M128.968,54.795a.793.793,0,1,0-.764-.764.792.792,0,0,0,.764.764" transform="translate(-102.905 -42.71)" fill="#59b270"/>
    <path id="Path_34" data-name="Path 34" d="M102.688,71.755a.793.793,0,1,0-.764-.764.792.792,0,0,0,.764.764" transform="translate(-81.811 -56.324)" fill="#59b270"/>
    <path id="Path_35" data-name="Path 35" d="M102.968,71.575a.793.793,0,1,0-.764-.764.792.792,0,0,0,.764.764" transform="translate(-82.036 -56.179)" fill="#59b270"/>
    <path id="Path_36" data-name="Path 36" d="M102.868,71.475a.793.793,0,1,0-.764-.764.792.792,0,0,0,.764.764" transform="translate(-81.956 -56.099)" fill="#59b270"/>
    <path id="Path_37" data-name="Path 37" d="M103.248,70.835a.793.793,0,1,0-.764-.764.792.792,0,0,0,.764.764" transform="translate(-82.261 -55.585)" fill="#59b270"/>
    <path id="Path_38" data-name="Path 38" d="M109.608,75.625a.793.793,0,1,0-.764-.764.792.792,0,0,0,.764.764" transform="translate(-87.366 -59.43)" fill="#59b270"/>
    <path id="Path_39" data-name="Path 39" d="M275,150.223a.717.717,0,1,0-.7-.7.714.714,0,0,0,.7.7" transform="translate(-220.177 -119.43)" fill="#e80004"/>
    <path id="Path_40" data-name="Path 40" d="M274.657,149.956a.767.767,0,0,1-.781-.754v-.049a.856.856,0,0,1,.193-.551.749.749,0,0,1,.586-.255.8.8,0,0,1,0,1.608m0-1.435a.593.593,0,0,0-.606.578v.049a.675.675,0,0,0,.152.436.579.579,0,0,0,.452.193.63.63,0,0,0,0-1.259" transform="translate(-219.833 -119.075)" fill="#e80004"/>
    <path id="Path_41" data-name="Path 41" d="M275,151.063a.717.717,0,1,0-.7-.7.714.714,0,0,0,.7.7" transform="translate(-220.177 -120.104)" fill="#e80004"/>
    <path id="Path_42" data-name="Path 42" d="M274.657,150.778a.767.767,0,0,1-.781-.754v-.051a.856.856,0,0,1,.193-.551.749.749,0,0,1,.586-.255.8.8,0,0,1,0,1.608m0-1.433a.593.593,0,0,0-.606.578v.049a.675.675,0,0,0,.152.436.579.579,0,0,0,.452.193.63.63,0,0,0,0-1.259" transform="translate(-219.833 -119.733)" fill="#e80004"/>
    <path id="Path_43" data-name="Path 43" d="M274.171,150.563a.717.717,0,1,0-.7-.7.714.714,0,0,0,.7.7" transform="translate(-219.511 -119.703)" fill="#e80004"/>
    <path id="Path_44" data-name="Path 44" d="M276.161,150.893a.717.717,0,1,0-.7-.7.714.714,0,0,0,.7.7" transform="translate(-221.108 -119.968)" fill="#e80004"/>
    <path id="Path_45" data-name="Path 45" d="M251.868,97.786a5.035,5.035,0,0,0-2.652-2.553,3.429,3.429,0,0,0-3.574.355,3.83,3.83,0,0,0-.732,3.9,8.748,8.748,0,0,0,2.311,3.487,25.426,25.426,0,0,1,3.134,3.583c.513.762,1.754.045,1.237-.722a19.709,19.709,0,0,0-2.38-2.9,16.407,16.407,0,0,1-2.336-2.6,3.774,3.774,0,0,1-.639-3.039,1.511,1.511,0,0,1,2.013-.886,3.659,3.659,0,0,1,2.38,2.1.722.722,0,0,0,.981.257.735.735,0,0,0,.257-.981" transform="translate(-196.41 -76.173)" fill="#e80004"/>
    <path id="Path_46" data-name="Path 46" d="M250.612,106.582a.793.793,0,0,1-.667-.365,23.77,23.77,0,0,0-2.916-3.362l-.2-.209a8.831,8.831,0,0,1-2.332-3.522,3.929,3.929,0,0,1,.758-3.986,3.528,3.528,0,0,1,3.666-.371,5.134,5.134,0,0,1,2.7,2.6.821.821,0,0,1-.292,1.093.867.867,0,0,1-.683.061.671.671,0,0,1-.422-.359,3.575,3.575,0,0,0-2.323-2.052,1.427,1.427,0,0,0-1.906.825,3.786,3.786,0,0,0,.629,2.97,12.556,12.556,0,0,0,1.849,2.111c.16.156.32.312.476.47a19.887,19.887,0,0,1,2.39,2.911.692.692,0,0,1,.069.714.894.894,0,0,1-.73.47h-.059M247.252,94.6a2.784,2.784,0,0,0-1.886.669,3.754,3.754,0,0,0-.706,3.8,8.667,8.667,0,0,0,2.289,3.449l.2.209a23.768,23.768,0,0,1,2.938,3.386.613.613,0,0,0,.568.284.715.715,0,0,0,.582-.371.513.513,0,0,0-.057-.539,19.752,19.752,0,0,0-2.37-2.885c-.156-.156-.316-.312-.474-.47A12.652,12.652,0,0,1,246.464,100a3.828,3.828,0,0,1-.649-3.112,1.609,1.609,0,0,1,2.119-.945,3.746,3.746,0,0,1,2.439,2.151.5.5,0,0,0,.316.262.7.7,0,0,0,.541-.045.649.649,0,0,0,.221-.868,4.964,4.964,0,0,0-2.6-2.51,4.262,4.262,0,0,0-1.6-.33" transform="translate(-196.074 -75.794)" fill="#e80004"/>
    <path id="Path_47" data-name="Path 47" d="M273.827,150.278a.767.767,0,0,1-.781-.754v-.051a.845.845,0,0,1,.193-.551.748.748,0,0,1,.586-.255.8.8,0,0,1,0,1.608m0-1.435a.593.593,0,0,0-.606.578v.049a.67.67,0,0,0,.152.434.579.579,0,0,0,.452.193.63.63,0,0,0,0-1.259" transform="translate(-219.167 -119.332)" fill="#e80004"/>
    <path id="Path_48" data-name="Path 48" d="M275.827,150.618a.767.767,0,0,1-.781-.754v-.051a.845.845,0,0,1,.193-.551.749.749,0,0,1,.586-.255.8.8,0,0,1,0,1.608m0-1.435a.593.593,0,0,0-.606.58v.051a.67.67,0,0,0,.152.434.579.579,0,0,0,.452.193.63.63,0,0,0,0-1.259" transform="translate(-220.772 -119.604)" fill="#e80004"/>
    <path id="Path_49" data-name="Path 49" d="M275.671,151.063a.717.717,0,1,0-.7-.7.714.714,0,0,0,.7.7" transform="translate(-220.715 -120.104)" fill="#e80004"/>
    <path id="Path_50" data-name="Path 50" d="M275.327,150.779a.767.767,0,0,1-.781-.754v-.051a.856.856,0,0,1,.193-.551.8.8,0,0,1,1.133-.039c.014.012.026.026.039.039a.835.835,0,0,1,.193.551.768.768,0,0,1-.73.8h-.051m0-1.433a.629.629,0,1,0,.6.653v-.026a.593.593,0,0,0-.555-.628h-.049" transform="translate(-220.371 -119.734)" fill="#e80004"/>
    <path id="Path_51" data-name="Path 51" d="M276.043,98.5a3.721,3.721,0,0,1,1.979-1.971c.71-.284,1.811-.4,2.257.377a3.227,3.227,0,0,1-.241,3,11.652,11.652,0,0,1-2.222,2.654,21.437,21.437,0,0,0-2.735,3.252c-.517.768.724,1.486,1.237.724a21.12,21.12,0,0,1,2.733-3.183,10.556,10.556,0,0,0,2.528-3.38,4.253,4.253,0,0,0-.2-3.994,3.105,3.105,0,0,0-3.437-.937,5.043,5.043,0,0,0-3.139,2.733.739.739,0,0,0,.257.981.722.722,0,0,0,.981-.257" transform="translate(-220.508 -76.162)" fill="#e80004"/>
    <path id="Path_52" data-name="Path 52" d="M275.352,106.636a.9.9,0,0,1-.505-.156.711.711,0,0,1-.243-.977c.01-.018.022-.034.034-.051a21.5,21.5,0,0,1,2.747-3.266l.152-.15a10.8,10.8,0,0,0,2.054-2.482,3.253,3.253,0,0,0,.241-2.916c-.44-.77-1.557-.572-2.149-.339a3.616,3.616,0,0,0-1.932,1.928.671.671,0,0,1-.422.359.867.867,0,0,1-.683-.061.825.825,0,0,1-.292-1.093,5.115,5.115,0,0,1,3.195-2.78,3.229,3.229,0,0,1,3.538.973,4.355,4.355,0,0,1,.205,4.079,10.626,10.626,0,0,1-2.546,3.41,21.376,21.376,0,0,0-2.723,3.169.782.782,0,0,1-.667.365m3.355-10.727a1.385,1.385,0,0,1,1.277.637,3.436,3.436,0,0,1-.239,3.09,10.95,10.95,0,0,1-2.084,2.524l-.152.15a21.477,21.477,0,0,0-2.725,3.238.535.535,0,0,0,.1.748.571.571,0,0,0,.057.037.646.646,0,0,0,.906-.126c.008-.01.016-.022.024-.034a21.633,21.633,0,0,1,2.745-3.2,10.5,10.5,0,0,0,2.508-3.353,4.174,4.174,0,0,0-.184-3.907,3.049,3.049,0,0,0-3.345-.906,4.936,4.936,0,0,0-3.084,2.684.653.653,0,0,0,.221.868.7.7,0,0,0,.541.045.505.505,0,0,0,.316-.262,3.8,3.8,0,0,1,2.027-2.017,2.992,2.992,0,0,1,1.089-.223" transform="translate(-220.137 -75.848)" fill="#e80004"/>
    <path id="Path_53" data-name="Path 53" d="M278.227,146.95a.381.381,0,1,1-.381.381.381.381,0,0,1,.381-.381" transform="translate(-223.02 -117.953)" fill="#e80004"/>
    <path id="Path_54" data-name="Path 54" d="M253.027,101.109c-.631-.724-1.671-1.76-2.668-1.026-.819.6-.943,1.92-.953,2.851a.686.686,0,0,0,1.269.345l.852-1.435a2.675,2.675,0,0,1,.333-.515c.022-.022.091-.069.1-.081.043-.018.051-.02.032,0-.089.016-.156-.037-.2-.162v-.365c-.006.032-.014.063-.02.095.059-.1.116-.2.176-.3.146-.057.16-.067.045-.03l-.1.032a2.826,2.826,0,0,0-.347.148,2.762,2.762,0,0,0-.553.389,3.309,3.309,0,0,0-.758,1.018c-.33.667-1.093,2.269.006,2.626.876.284,1.606-.892,2.027-1.49a7.034,7.034,0,0,1,1.431-1.752l-.931-.245c.15.227-1.421,1.44-1.634,1.648-.608.584-1.719,1.742-.833,2.565s1.938-.531,2.473-1.135c.316-.355.618-.724.927-1.083.17-.193.339-.387.517-.572q.121-.13.249-.255c.039-.039.081-.079.124-.116s.051-.036,0-.012l-.657-.862c-.231,1.006-1.3,1.462-1.995,2.115s-1.512,2.021-.657,2.889c.963.979,2.182-.474,2.589-1.289.343-.689.6-1.888,1.444-2.135l-.77-.312-.026-.266a2.029,2.029,0,0,1-.109.178c-.063.1-.128.193-.2.286-.126.172-.264.333-.4.493-.328.383-.669.752-.979,1.146-.56.716-1.255,1.778-.8,2.713a.962.962,0,0,0,1.164.529,2.554,2.554,0,0,0,1.176-1.036,13.293,13.293,0,0,0,1.117-2.652A8.76,8.76,0,0,1,257,101.815a1.428,1.428,0,0,1,.937-.618,4.184,4.184,0,0,1,1.322-.016c.3.055.318.45.33.708a2.43,2.43,0,0,1-.189,1.024,4.884,4.884,0,0,1-1.733,1.849,17.178,17.178,0,0,0-2,2.325c-.657.74-1.531,1.269-1.8,2.283h1.314a11.137,11.137,0,0,0-.079-1.308,2.417,2.417,0,0,0-.262-.531.868.868,0,0,1-.189-.393,2.017,2.017,0,0,1,.442-.977,11.62,11.62,0,0,1,.744-1.034,51.273,51.273,0,0,1,3.653-4.063l-1.07-.138c-.022-.032.077-.136,0-.051.016-.016-.051.134-.041.109a2.639,2.639,0,0,1-.257.424,4.771,4.771,0,0,1-.667.73c-.517.481-1.093.89-1.64,1.342a4.549,4.549,0,0,0-1.971,3.7c.03.337.29.722.681.681.76-.081,1.257-.73,1.733-1.271.45-.515.868-1.058,1.289-1.6a13.447,13.447,0,0,1,2.709-2.849l-1.026-.588a1.232,1.232,0,0,1-.387.756q-.364.45-.76.88c-.521.572-1.075,1.117-1.648,1.64a11.237,11.237,0,0,0-1.537,1.5,2.3,2.3,0,0,0-.43.943,3.242,3.242,0,0,0-.034.663c0,.051,0,.109,0,.162.012.152-.087.083.018.022h.687a.366.366,0,0,1,.087.509.348.348,0,0,1-.1.095.654.654,0,0,1,.124,0,1.765,1.765,0,0,0,1.314-.253,5.727,5.727,0,0,0,1.141-1.326q.583-.775,1.154-1.563a7.206,7.206,0,0,0,.914-1.49c.406-1,.558-2.508-.306-3.325a1.683,1.683,0,0,0-1.663-.359,3.141,3.141,0,0,0-1.379,1.038.7.7,0,0,0,0,.963.687.687,0,0,0,.963,0c.215-.245.876-1.081,1.212-.568a2.276,2.276,0,0,1-.118,1.833,11.505,11.505,0,0,1-1.33,1.952c-.231.312-.464.626-.7.937-.176.233-.393.649-.657.791-.235.126-.651-.016-.929.037a1.116,1.116,0,0,0-.886.742,1.014,1.014,0,0,0,.266,1.03.817.817,0,0,0,1.223-.144,1.537,1.537,0,0,0,.32-1.016,1.3,1.3,0,0,1,.185-.856,9.555,9.555,0,0,1,1.506-1.429,25.039,25.039,0,0,0,1.8-1.829,3.711,3.711,0,0,0,1.3-2.325.686.686,0,0,0-.7-.677.665.665,0,0,0-.33.089,13.261,13.261,0,0,0-2.719,2.721c-.391.5-.772,1-1.172,1.484-.193.235-.393.47-.6.693-.109.118-.219.237-.331.351-.063.063-.126.126-.191.189s-.2.109-.032.091l.681.681c-.126-1.506,1.251-2.49,2.3-3.315a8.989,8.989,0,0,0,1.553-1.458c.448-.566,1.048-1.458.539-2.171a.692.692,0,0,0-.951-.229.6.6,0,0,0-.118.093,47.5,47.5,0,0,0-3.982,4.489,4.749,4.749,0,0,0-1.255,2.5,1.755,1.755,0,0,0,.166.77c.089.191.231.355.318.547a1.216,1.216,0,0,1,.043.558,3.573,3.573,0,0,0,.051.781.686.686,0,0,0,1.312,0c.156-.594.734-.971,1.154-1.377a16.827,16.827,0,0,0,1.391-1.738,12.622,12.622,0,0,1,1.762-1.561,4.506,4.506,0,0,0,1.239-1.808,3.448,3.448,0,0,0,.111-2.129,1.788,1.788,0,0,0-.61-.983A2.147,2.147,0,0,0,259,99.808a3.756,3.756,0,0,0-2.376.474,8.147,8.147,0,0,0-1.579,1.813,8.788,8.788,0,0,0-1.17,2.413,7.26,7.26,0,0,1-.458,1.139,2.82,2.82,0,0,1-.326.5c-.047.055-.1.107-.15.156l-.112.1c-.1.063-.109.071-.006.02l.343.093c.2.087,0,.134.089.022a1.373,1.373,0,0,0,.055-.251,2.518,2.518,0,0,1,.312-.584,10.481,10.481,0,0,1,.878-1.079,13.806,13.806,0,0,0,.949-1.17,1.356,1.356,0,0,0,.264-1.476.687.687,0,0,0-.77-.312,3.1,3.1,0,0,0-1.831,1.808c-.176.377-.32.768-.521,1.135a2.4,2.4,0,0,1-.312.47,1.464,1.464,0,0,1-.187.18c-.211.16-.251,0,.144.184.057.1.073.122.051.049-.018-.043-.018-.051,0-.032.018-.047.024-.14.041-.2a1.539,1.539,0,0,1,.266-.47,4.913,4.913,0,0,1,.888-.793,4.036,4.036,0,0,0,1.756-2.236.688.688,0,0,0-.493-.841.655.655,0,0,0-.164-.022c-.923.028-1.581,1.028-2.127,1.669-.282.332-.562.665-.856.987-.146.16-.3.318-.452.47-.085.081-.17.166-.26.243l-.089.079q-.074.038.047-.036l.343.093c.032.32.083.414.156.286l.059-.091c.055-.079.109-.152.17-.227a6.623,6.623,0,0,1,.47-.5c.318-.308.655-.594.985-.888.673-.606,1.531-1.5.906-2.449a.688.688,0,0,0-.931-.245,6.645,6.645,0,0,0-1.515,1.654c-.193.278-.379.564-.582.833-.1.128-.2.253-.308.371-.057.061-.114.122-.174.182l-.073.069c-.089.085-.1.091-.032.02h.365l-.087-.024.3.176-.051-.051.176.3c.014.036-.036.077.018-.016a1.49,1.49,0,0,0,.085-.276c.057-.184.116-.369.189-.547a2.512,2.512,0,0,1,.529-.845,2.171,2.171,0,0,1,.732-.406.9.9,0,0,0,.466-1.178c-.012-.026-.024-.051-.037-.077a1.319,1.319,0,0,0-2.074-.134,5.049,5.049,0,0,0-.718,1.058L249.5,102.6l1.269.343a4.169,4.169,0,0,1,.359-1.723c.077-.17.037.059-.036-.02.051.055.184.11.251.166a6.174,6.174,0,0,1,.72.716.687.687,0,0,0,.963,0,.7.7,0,0,0,0-.963" transform="translate(-200.192 -80.087)" fill="#e80004"/>
    <path id="Path_55" data-name="Path 55" d="M601,171.654a12.071,12.071,0,0,1-4.424-.787,10.316,10.316,0,0,1-5.819-5.6,11.269,11.269,0,0,1,0-8.493,10.272,10.272,0,0,1,2.33-3.37,10.533,10.533,0,0,1,3.518-2.228,12.156,12.156,0,0,1,4.454-.787,12.389,12.389,0,0,1,4.513.8,8.942,8.942,0,0,1,3.475,2.405l-1.841,1.841a8.185,8.185,0,0,0-2.776-1.825,8.939,8.939,0,0,0-3.252-.578,9.133,9.133,0,0,0-3.311.594,7.9,7.9,0,0,0-2.642,1.663,7.41,7.41,0,0,0-1.723,2.54,8.246,8.246,0,0,0-.608,3.193,8.123,8.123,0,0,0,.608,3.161,7.536,7.536,0,0,0,1.723,2.553,7.785,7.785,0,0,0,2.628,1.677,8.934,8.934,0,0,0,3.3.594,9.89,9.89,0,0,0,3.193-.519,7.837,7.837,0,0,0,2.836-1.736l1.693,2.257a10.576,10.576,0,0,1-3.607,1.975,13.731,13.731,0,0,1-4.261.669Zm5.018-3.029v-7.719h2.851v8.106Z" transform="translate(-473.517 -120.714)" fill="#59b270"/>
    <path id="Path_56" data-name="Path 56" d="M698.716,172.4l9.413-20.784h2.94l9.442,20.784h-3.118l-8.4-19.123h1.188l-8.4,19.123h-3.061Zm4.01-5.2.8-2.376h11.7l.86,2.376Z" transform="translate(-560.841 -121.701)" fill="#59b270"/>
    <path id="Path_57" data-name="Path 57" d="M824.816,151.62h2.97V172.4h-2.97Zm2.613,15.766-.148-3.623,11.788-12.143h3.386l-9.117,9.62-1.663,1.841Zm12.116,5.018-8.523-9.918,1.989-2.2L843.017,172.4h-3.473Z" transform="translate(-662.058 -121.701)" fill="#59b270"/>
    <path id="Path_58" data-name="Path 58" d="M590.423,359.834v-18.2H583.3V339.05h17.193v2.583h-7.127v18.2h-2.938Z" transform="translate(-468.196 -272.146)" fill="#59b270"/>
    <path id="Path_59" data-name="Path 59" d="M677.529,379.944a9.144,9.144,0,0,1-4.44-1.04,7.5,7.5,0,0,1-2.97-2.849,8.114,8.114,0,0,1-1.054-4.158,8.3,8.3,0,0,1,1.024-4.158,7.392,7.392,0,0,1,2.822-2.836A8.556,8.556,0,0,1,681,364.89a7.143,7.143,0,0,1,2.747,2.836,8.773,8.773,0,0,1,.995,4.26c0,.118-.006.257-.016.414s-.026.308-.045.446H671.292V370.8H683.2l-1.158.712a5.285,5.285,0,0,0-.624-2.7,4.779,4.779,0,0,0-1.8-1.857,5.6,5.6,0,0,0-5.3,0,4.709,4.709,0,0,0-1.811,1.871,5.652,5.652,0,0,0-.653,2.747v.476a5.407,5.407,0,0,0,.728,2.806,4.985,4.985,0,0,0,2.034,1.914,6.371,6.371,0,0,0,3,.683,6.55,6.55,0,0,0,2.54-.476,5.555,5.555,0,0,0,2-1.425l1.573,1.841a6.9,6.9,0,0,1-2.658,1.9,9.24,9.24,0,0,1-3.548.653Z" transform="translate(-537.041 -292.077)" fill="#59b270"/>
    <path id="Path_60" data-name="Path 60" d="M754.7,380.359l6.77-8.789-.03,1.454-6.445-8.4h3.177l4.929,6.474H761.88l4.929-6.474h3.118l-6.532,8.463.03-1.515,6.829,8.789h-3.236l-5.2-6.889,1.158.178-5.107,6.711H754.7Z" transform="translate(-605.774 -292.671)" fill="#59b270"/>
    <path id="Path_61" data-name="Path 61" d="M837.906,350.623h10.036v2.346H837.906Zm7.66,15.916a5.039,5.039,0,0,1-3.682-1.277,4.869,4.869,0,0,1-1.306-3.653V347.18h2.851v14.312a2.757,2.757,0,0,0,.639,1.959,2.376,2.376,0,0,0,1.825.683,3.363,3.363,0,0,0,2.228-.742l.89,2.048a4.128,4.128,0,0,1-1.559.831,6.653,6.653,0,0,1-1.886.266Z" transform="translate(-672.565 -278.672)" fill="#59b270"/>
    <path id="Path_62" data-name="Path 62" d="M911.016,334.182a1.9,1.9,0,0,1-1.381-.535,1.75,1.75,0,0,1-.549-1.306,1.814,1.814,0,0,1,.549-1.336,1.9,1.9,0,0,1,1.381-.535,1.929,1.929,0,0,1,1.381.521,1.7,1.7,0,0,1,.549,1.292,1.887,1.887,0,0,1-.535,1.35A1.859,1.859,0,0,1,911.016,334.182Zm-1.425,3.029h2.849v15.737h-2.849Z" transform="translate(-729.699 -265.259)" fill="#59b270"/>
    <rect id="Rectangle_2" data-name="Rectangle 2" width="2.849" height="22.033" transform="translate(188.176 65.655)" fill="#59b270"/>
    <path id="Path_63" data-name="Path 63" d="M995.606,379.757V364.02h2.731V368.3l-.266-1.07a4.825,4.825,0,0,1,2.2-2.494,7.7,7.7,0,0,1,3.8-.862v2.763a2.083,2.083,0,0,0-.341-.03h-.312a4.839,4.839,0,0,0-3.623,1.366,5.421,5.421,0,0,0-1.336,3.948v7.84h-2.851Z" transform="translate(-799.146 -292.069)" fill="#59b270"/>
    <path id="Path_64" data-name="Path 64" d="M1056.587,379.944a9.136,9.136,0,0,1-4.438-1.04,7.5,7.5,0,0,1-2.97-2.849,8.114,8.114,0,0,1-1.054-4.158,8.3,8.3,0,0,1,1.024-4.158,7.4,7.4,0,0,1,2.82-2.836,8.552,8.552,0,0,1,8.09-.014,7.143,7.143,0,0,1,2.747,2.836,8.775,8.775,0,0,1,.995,4.26c0,.118-.006.257-.016.414s-.026.308-.045.446h-13.393V370.8h11.907l-1.158.712a5.284,5.284,0,0,0-.624-2.7,4.779,4.779,0,0,0-1.8-1.857,5.6,5.6,0,0,0-5.3,0,4.722,4.722,0,0,0-1.811,1.871,5.651,5.651,0,0,0-.653,2.747v.476a5.407,5.407,0,0,0,.728,2.806,4.985,4.985,0,0,0,2.034,1.914,6.371,6.371,0,0,0,3,.683,6.533,6.533,0,0,0,2.538-.476,5.554,5.554,0,0,0,2-1.425l1.573,1.841a6.9,6.9,0,0,1-2.658,1.9,9.24,9.24,0,0,1-3.548.653Z" transform="translate(-841.303 -292.077)" fill="#59b270"/>
    <path id="Path_65" data-name="Path 65" d="M1148.529,379.944a8.721,8.721,0,0,1-4.29-1.04,7.653,7.653,0,0,1-2.954-2.849,8.617,8.617,0,0,1,0-8.315,7.536,7.536,0,0,1,2.954-2.836,8.844,8.844,0,0,1,4.29-1.024,8.354,8.354,0,0,1,3.816.847,6,6,0,0,1,2.6,2.51l-2.167,1.4a4.837,4.837,0,0,0-1.886-1.707,5.317,5.317,0,0,0-2.39-.549,5.533,5.533,0,0,0-2.761.683,5.055,5.055,0,0,0-1.93,1.916,5.734,5.734,0,0,0-.712,2.924,5.812,5.812,0,0,0,.712,2.938,5.022,5.022,0,0,0,1.93,1.93,5.539,5.539,0,0,0,2.761.683,5.343,5.343,0,0,0,2.39-.549,4.864,4.864,0,0,0,1.886-1.707l2.167,1.366a6.21,6.21,0,0,1-2.6,2.508A8.12,8.12,0,0,1,1148.529,379.944Z" transform="translate(-915.221 -292.077)" fill="#59b270"/>
    <path id="Path_66" data-name="Path 66" d="M1219.485,386.306a6.679,6.679,0,0,1-2.2-.371,5.227,5.227,0,0,1-1.841-1.083l1.218-2.137a4.288,4.288,0,0,0,1.306.86,3.914,3.914,0,0,0,1.516.3,2.708,2.708,0,0,0,1.723-.535,4.864,4.864,0,0,0,1.277-1.9l.981-2.167.3-.357,6.176-14.283h2.792l-7.631,17.311a9.142,9.142,0,0,1-1.529,2.613,4.925,4.925,0,0,1-1.855,1.35,5.96,5.96,0,0,1-2.228.4Zm3.741-5.434-7.187-16.242h2.969l6.117,14.016-1.9,2.228Z" transform="translate(-975.606 -292.679)" fill="#59b270"/>
    <path id="Path_67" data-name="Path 67" d="M1315.259,379.944a8.722,8.722,0,0,1-4.29-1.04,7.653,7.653,0,0,1-2.954-2.849,8.617,8.617,0,0,1,0-8.315,7.536,7.536,0,0,1,2.954-2.836,8.845,8.845,0,0,1,4.29-1.024,8.354,8.354,0,0,1,3.816.847,6,6,0,0,1,2.6,2.51l-2.167,1.4a4.838,4.838,0,0,0-1.886-1.707,5.318,5.318,0,0,0-2.39-.549,5.533,5.533,0,0,0-2.76.683,5.056,5.056,0,0,0-1.93,1.916,5.732,5.732,0,0,0-.712,2.924,5.811,5.811,0,0,0,.712,2.938,5.022,5.022,0,0,0,1.93,1.93,5.539,5.539,0,0,0,2.76.683,5.343,5.343,0,0,0,2.39-.549,4.863,4.863,0,0,0,1.886-1.707l2.167,1.366a6.21,6.21,0,0,1-2.6,2.508A8.12,8.12,0,0,1,1315.259,379.944Z" transform="translate(-1049.051 -292.077)" fill="#59b270"/>
    <rect id="Rectangle_3" data-name="Rectangle 3" width="2.849" height="22.033" transform="translate(276.097 65.655)" fill="#59b270"/>
    <path id="Path_68" data-name="Path 68" d="M1440.546,334.182a1.9,1.9,0,0,1-1.381-.535,1.75,1.75,0,0,1-.549-1.306,1.815,1.815,0,0,1,.549-1.336,1.9,1.9,0,0,1,1.381-.535,1.929,1.929,0,0,1,1.381.521,1.7,1.7,0,0,1,.549,1.292,1.886,1.886,0,0,1-.535,1.35A1.859,1.859,0,0,1,1440.546,334.182Zm-1.425,3.029h2.849v15.737h-2.849Z" transform="translate(-1154.739 -265.259)" fill="#59b270"/>
    <path id="Path_69" data-name="Path 69" d="M1491.566,363.872a7.468,7.468,0,0,1,3.4.742,5.332,5.332,0,0,1,2.3,2.257,7.887,7.887,0,0,1,.833,3.83v9.055h-2.851v-8.73a4.8,4.8,0,0,0-1.113-3.445,4.141,4.141,0,0,0-3.132-1.158,5.583,5.583,0,0,0-2.642.594,4.047,4.047,0,0,0-1.736,1.752,6.133,6.133,0,0,0-.61,2.881v8.106h-2.849V364.02h2.731v4.246l-.446-1.129a5.474,5.474,0,0,1,2.376-2.405,7.792,7.792,0,0,1,3.741-.862Z" transform="translate(-1190.498 -292.069)" fill="#59b270"/>
    <path id="Path_70" data-name="Path 70" d="M1586.252,379.1a8.488,8.488,0,0,1-4.083-.965,7.362,7.362,0,0,1-2.849-2.688,8.066,8.066,0,0,1,0-7.972,7.317,7.317,0,0,1,2.849-2.658,8.6,8.6,0,0,1,4.083-.951,8.239,8.239,0,0,1,3.682.817,6.249,6.249,0,0,1,2.658,2.508,8.338,8.338,0,0,1,.995,4.276,8.223,8.223,0,0,1-.995,4.246,6.423,6.423,0,0,1-2.658,2.54,8,8,0,0,1-3.682.847m.357,6.593a14.629,14.629,0,0,1-4.2-.608,8.7,8.7,0,0,1-3.311-1.736l1.365-2.2a8.106,8.106,0,0,0,2.7,1.5,10.309,10.309,0,0,0,3.355.549,5.6,5.6,0,0,0,4.1-1.306,5.416,5.416,0,0,0,1.306-3.978v-3.325l.3-3.118-.148-3.147v-4.306h2.7v13.6q0,4.156-2.078,6.117T1586.6,385.7Zm-.03-9.087a5.811,5.811,0,0,0,2.792-.653,4.89,4.89,0,0,0,1.914-1.811,5.459,5.459,0,0,0,0-5.344,4.782,4.782,0,0,0-1.914-1.8,5.914,5.914,0,0,0-2.792-.637,6.022,6.022,0,0,0-2.806.637,4.774,4.774,0,0,0-1.93,1.8,5.459,5.459,0,0,0,0,5.344,4.88,4.88,0,0,0,1.93,1.811,5.888,5.888,0,0,0,2.806.653" transform="translate(-1266.832 -292.069)" fill="#59b270"/>
  </g>
</svg>
