<svg id="Group_74" data-name="Group 74" xmlns="http://www.w3.org/2000/svg" xmlns:xlink="http://www.w3.org/1999/xlink" width="120.651" height="108.812" viewBox="0 0 120.651 108.812">
  <defs>
    <clipPath id="clip-path">
      <rect id="Rectangle_56" data-name="Rectangle 56" width="120.651" height="108.812" fill="#303030"/>
    </clipPath>
  </defs>
  <g id="Group_73" data-name="Group 73" clip-path="url(#clip-path)">
    <path id="Path_1162" data-name="Path 1162" d="M79.89,45.006a3.892,3.892,0,0,0-5.5,0L56.241,63.151l-8.167-8.166a3.892,3.892,0,1,0-5.5,5.5l10.8,10.8a4.224,4.224,0,0,0,5.747,0L79.89,50.51a3.892,3.892,0,0,0,0-5.5" fill="#303030"/>
    <path id="Path_1163" data-name="Path 1163" d="M81.44,91.161a40.6,40.6,0,1,1,13.844-16,22.588,22.588,0,0,0,3.763,5.147A46.423,46.423,0,1,0,85.311,95.445a20.8,20.8,0,0,0-3.871-4.284" fill="#303030"/>
    <path id="Path_1164" data-name="Path 1164" d="M91.162,63.985C91,76.3,86.4,86.242,74.087,86.4,86.4,86.555,91,96.5,91.162,108.812,91.319,96.5,95.923,86.555,108.238,86.4c-12.315-.156-16.919-10.1-17.076-22.413" fill="#303030"/>
    <path id="Path_1165" data-name="Path 1165" d="M111.16,18.688c-.087,6.844-2.646,12.37-9.49,12.457,6.844.087,9.4,5.614,9.49,12.458.087-6.844,2.646-12.371,9.491-12.458-6.845-.086-9.4-5.613-9.491-12.457" fill="#303030"/>
    <path id="Path_1166" data-name="Path 1166" d="M13.067,0C12.947,9.424,9.423,17.033,0,17.153c9.423.12,12.947,7.729,13.067,17.153.12-9.424,3.644-17.034,13.068-17.153C16.711,17.034,13.187,9.424,13.067,0" fill="#303030"/>
  </g>
</svg>
