<svg id="Group_70" data-name="Group 70" xmlns="http://www.w3.org/2000/svg" xmlns:xlink="http://www.w3.org/1999/xlink" width="161.101" height="89.647" viewBox="0 0 161.101 89.647">
  <defs>
    <clipPath id="clip-path">
      <rect id="Rectangle_54" data-name="Rectangle 54" width="161.101" height="89.647" fill="#303030"/>
    </clipPath>
  </defs>
  <g id="Group_69" data-name="Group 69" clip-path="url(#clip-path)">
    <path id="Path_1138" data-name="Path 1138" d="M122.634,206.873H102.266c-.466,0-.935.02-1.4-.021a3.1,3.1,0,0,1-2.9-2.927,3.135,3.135,0,0,1,2.727-3.251,9.891,9.891,0,0,1,1.4-.042q20.6,0,41.2,0a8.909,8.909,0,0,1,1.55.064,3.1,3.1,0,0,1-.292,6.154c-.463.043-.932.022-1.4.022H122.634" transform="translate(-57.244 -117.23)" fill="#303030"/>
    <path id="Path_1139" data-name="Path 1139" d="M250.689,206.849c-2.227,0-4.454.013-6.68,0a2.967,2.967,0,0,1-2.753-1.7,2.875,2.875,0,0,1,.178-3.092,3.25,3.25,0,0,1,2.928-1.438c3.055.014,6.111,0,9.166,0,1.346,0,2.7-.052,4.038.031a3.089,3.089,0,0,1,2.94,2.886,3.133,3.133,0,0,1-2.517,3.266,6.945,6.945,0,0,1-1.239.058q-3.029.007-6.059,0Z" transform="translate(-140.755 -117.213)" fill="#303030"/>
    <path id="Path_1140" data-name="Path 1140" d="M41.41,115.2a2.235,2.235,0,0,1-3.071,2.278,7.712,7.712,0,0,1-.9-.446c-3.815-2-7.639-3.993-11.433-6.035a1.7,1.7,0,0,0-1.837.006c-3.766,2.017-7.557,3.986-11.341,5.97-.263.138-.525.279-.794.406a2.258,2.258,0,0,1-3.267-2.47q.453-2.693.922-5.383c.477-2.745.942-5.493,1.451-8.232a1.462,1.462,0,0,0-.541-1.454Q5.87,95.264,1.17,90.654c-.133-.13-.268-.258-.4-.388a2.2,2.2,0,0,1-.662-2.337,2.247,2.247,0,0,1,1.956-1.6C3.2,86.145,4.344,86,5.484,85.836c3.347-.482,6.691-.984,10.042-1.437a1.71,1.71,0,0,0,1.484-1.084c1.886-3.915,3.845-7.795,5.748-11.7.5-1.031,1.09-1.88,2.374-1.86,1.231.019,1.792.858,2.273,1.844,1.924,3.938,3.891,7.856,5.8,11.8a1.505,1.505,0,0,0,1.314.959c4.379.61,8.752,1.266,13.126,1.913a5.134,5.134,0,0,1,1.085.236,2.2,2.2,0,0,1,1.024,3.326,5.862,5.862,0,0,1-.756.817c-3.114,3.04-6.221,6.087-9.358,9.1a1.7,1.7,0,0,0-.573,1.739c.763,4.166,1.454,8.345,2.167,12.52.075.44.131.882.176,1.193M14.032,110.84c-.108.444.2.348.556.162.1-.051.194-.11.292-.162,2.761-1.453,5.554-2.848,8.27-4.382A3.543,3.543,0,0,1,27,106.442c2.72,1.526,5.508,2.93,8.27,4.38.261.137.539.243.809.364a7.3,7.3,0,0,0-.047-.855c-.528-3.113-1.013-6.234-1.622-9.331a3.481,3.481,0,0,1,1.179-3.568c2.374-2.2,4.653-4.5,6.967-6.756a3.807,3.807,0,0,0,.333-.43,3.092,3.092,0,0,0-.562-.2c-3.305-.5-6.606-1.038-9.921-1.467a2.986,2.986,0,0,1-2.55-1.837c-1.426-2.982-2.914-5.933-4.386-8.893a3.977,3.977,0,0,0-.414-.562c-.122.181-.253.357-.364.544-.095.159-.168.331-.249.5-1.415,2.863-2.842,5.72-4.237,8.593A2.7,2.7,0,0,1,18,88.551c-3.384.473-6.763.987-10.142,1.494a3.041,3.041,0,0,0-.559.2c.11.144.211.3.332.43.149.165.315.316.475.472,2.263,2.206,4.516,4.423,6.8,6.612a2.787,2.787,0,0,1,.929,2.7c-.271,1.423-.515,2.851-.76,4.279-.34,1.977-.67,3.955-1.034,6.1" transform="translate(0 -40.758)" fill="#303030"/>
    <path id="Path_1141" data-name="Path 1141" d="M308.311,115.2a2.235,2.235,0,0,1-3.071,2.278,7.711,7.711,0,0,1-.9-.446c-3.815-2-7.639-3.993-11.433-6.035a1.7,1.7,0,0,0-1.837.006c-3.766,2.017-7.557,3.986-11.341,5.97-.263.138-.525.279-.794.406a2.258,2.258,0,0,1-3.267-2.47q.453-2.693.922-5.383c.477-2.745.942-5.493,1.451-8.232a1.462,1.462,0,0,0-.541-1.454q-4.731-4.578-9.431-9.188c-.133-.13-.268-.258-.4-.388a2.2,2.2,0,0,1-.662-2.337,2.247,2.247,0,0,1,1.956-1.6c1.138-.179,2.281-.324,3.421-.488,3.347-.482,6.691-.984,10.042-1.437a1.71,1.71,0,0,0,1.484-1.084c1.886-3.915,3.845-7.795,5.748-11.7.5-1.031,1.09-1.88,2.374-1.86,1.231.019,1.792.858,2.273,1.844,1.924,3.938,3.891,7.856,5.8,11.8a1.505,1.505,0,0,0,1.314.959c4.379.61,8.752,1.266,13.126,1.913a5.134,5.134,0,0,1,1.085.236,2.2,2.2,0,0,1,1.024,3.326,5.863,5.863,0,0,1-.756.817c-3.114,3.04-6.221,6.087-9.358,9.1a1.7,1.7,0,0,0-.573,1.739c.763,4.166,1.454,8.345,2.167,12.52.075.44.13.882.176,1.193m-27.378-4.363c-.108.444.2.348.556.162.1-.051.194-.11.292-.162,2.761-1.453,5.554-2.848,8.269-4.382a3.544,3.544,0,0,1,3.854-.017c2.72,1.526,5.508,2.93,8.27,4.38.261.137.539.243.809.364a7.4,7.4,0,0,0-.047-.855c-.527-3.113-1.013-6.234-1.622-9.331a3.481,3.481,0,0,1,1.179-3.568c2.374-2.2,4.653-4.5,6.967-6.756a3.8,3.8,0,0,0,.333-.43,3.092,3.092,0,0,0-.562-.2c-3.305-.5-6.606-1.038-9.921-1.467a2.986,2.986,0,0,1-2.55-1.837c-1.426-2.982-2.914-5.933-4.386-8.893a3.978,3.978,0,0,0-.414-.562c-.122.181-.253.357-.364.544-.095.159-.168.331-.249.5-1.415,2.863-2.842,5.72-4.237,8.593a2.7,2.7,0,0,1-2.215,1.628c-3.384.473-6.763.987-10.142,1.494a3.042,3.042,0,0,0-.559.2c.11.144.211.3.332.43.149.165.315.316.475.472,2.263,2.206,4.516,4.423,6.8,6.612a2.787,2.787,0,0,1,.929,2.7c-.271,1.423-.515,2.851-.76,4.279-.34,1.977-.671,3.955-1.034,6.1" transform="translate(-155.955 -40.758)" fill="#303030"/>
    <path id="Path_1167" data-name="Path 1167" d="M308.311,115.2a2.235,2.235,0,0,1-3.071,2.278,7.711,7.711,0,0,1-.9-.446c-3.815-2-7.639-3.993-11.433-6.035a1.7,1.7,0,0,0-1.837.006c-3.766,2.017-7.557,3.986-11.341,5.97-.263.138-.525.279-.794.406a2.258,2.258,0,0,1-3.267-2.47q.453-2.693.922-5.383c.477-2.745.942-5.493,1.451-8.232a1.462,1.462,0,0,0-.541-1.454q-4.731-4.578-9.431-9.188c-.133-.13-.268-.258-.4-.388a2.2,2.2,0,0,1-.662-2.337,2.247,2.247,0,0,1,1.956-1.6c1.138-.179,2.281-.324,3.421-.488,3.347-.482,6.691-.984,10.042-1.437a1.71,1.71,0,0,0,1.484-1.084c1.886-3.915,3.845-7.795,5.748-11.7.5-1.031,1.09-1.88,2.374-1.86,1.231.019,1.792.858,2.273,1.844,1.924,3.938,3.891,7.856,5.8,11.8a1.505,1.505,0,0,0,1.314.959c4.379.61,8.752,1.266,13.126,1.913a5.134,5.134,0,0,1,1.085.236,2.2,2.2,0,0,1,1.024,3.326,5.863,5.863,0,0,1-.756.817c-3.114,3.04-6.221,6.087-9.358,9.1a1.7,1.7,0,0,0-.573,1.739c.763,4.166,1.454,8.345,2.167,12.52.075.44.13.882.176,1.193m-27.378-4.363c-.108.444.2.348.556.162.1-.051.194-.11.292-.162,2.761-1.453,5.554-2.848,8.269-4.382a3.544,3.544,0,0,1,3.854-.017c2.72,1.526,5.508,2.93,8.27,4.38.261.137.539.243.809.364a7.4,7.4,0,0,0-.047-.855c-.527-3.113-1.013-6.234-1.622-9.331a3.481,3.481,0,0,1,1.179-3.568c2.374-2.2,4.653-4.5,6.967-6.756a3.8,3.8,0,0,0,.333-.43,3.092,3.092,0,0,0-.562-.2c-3.305-.5-6.606-1.038-9.921-1.467a2.986,2.986,0,0,1-2.55-1.837c-1.426-2.982-2.914-5.933-4.386-8.893a3.978,3.978,0,0,0-.414-.562c-.122.181-.253.357-.364.544-.095.159-.168.331-.249.5-1.415,2.863-2.842,5.72-4.237,8.593a2.7,2.7,0,0,1-2.215,1.628c-3.384.473-6.763.987-10.142,1.494a3.042,3.042,0,0,0-.559.2c.11.144.211.3.332.43.149.165.315.316.475.472,2.263,2.206,4.516,4.423,6.8,6.612a2.787,2.787,0,0,1,.929,2.7c-.271,1.423-.515,2.851-.76,4.279-.34,1.977-.671,3.955-1.034,6.1" transform="translate(-211.428 -58.758)" fill="#303030"/>
  </g>
</svg>
