<svg xmlns="http://www.w3.org/2000/svg" width="14.267" height="234.63" viewBox="0 0 14.267 234.63">
  <path id="Icon_awesome-arrow-down" data-name="Icon awesome-arrow-down" d="M13.709-24.52l.725.725a.781.781,0,0,1,0,1.108L8.086-16.337a.781.781,0,0,1-1.108,0L.628-22.688a.781.781,0,0,1,0-1.108l.725-.725a.785.785,0,0,1,1.121.013l3.751,3.937L5.473-249.952a.782.782,0,0,1,.784-.784H7.3a.782.782,0,0,1,.784.784L8.838-20.571l3.751-3.937A.779.779,0,0,1,13.709-24.52Z" transform="translate(-0.397 250.736)" fill="#59b270"/>
</svg>
