<svg xmlns="http://www.w3.org/2000/svg" width="170.668" height="50.707" viewBox="0 0 170.668 50.707">
  <g id="Group_32" data-name="Group 32" transform="translate(0)">
    <path id="Path_141" data-name="Path 141" d="M72.575,33.493a17.152,17.152,0,0,1-7.6-16.748c.013.013.027.027.04.042a4.917,4.917,0,0,1,.387-2.241,6.906,6.906,0,0,1,.574-1.778,15.686,15.686,0,0,1,2.333-4.211c.257-.342.374-.747.061-1.049a1.317,1.317,0,0,0-.907-.309c-.212.013-.448.295-.6.507a18.652,18.652,0,0,0-3.2,15.887,18.991,18.991,0,0,0,20.857,14.39,18.032,18.032,0,0,0,8.921-3.549c6.277-4.809,8.879-11.219,7.408-18.963C99.361,7.635,94.44,2.729,86.791.564,85.831.293,84.824.184,83.839,0h-3.3a1.439,1.439,0,0,1-.306.1A18.97,18.97,0,0,0,69.507,4.816.839.839,0,1,0,70.6,6.081c.087-.067.17-.14.255-.211A17.323,17.323,0,0,1,82.357,1.665c1.012,0,2.023.164,3.032.254A3.523,3.523,0,0,1,82.98,4.953c-.745.182-1.5.318-2.26.443-2.9.475-5.133,1.78-6.073,4.756a9.03,9.03,0,0,1-.473,1.04,13.935,13.935,0,0,0-.829-1.725,1.99,1.99,0,0,0-2.158-.856,3.421,3.421,0,0,0-2.142,2.511,4.989,4.989,0,0,0,.352,1.587,2.233,2.233,0,0,1,.091,1.655,1.887,1.887,0,0,0,.365,2.091,9.482,9.482,0,0,0,3.774,2.941,3.293,3.293,0,0,0,1.75.271,3.5,3.5,0,0,1,3.6,1.474c.772.976,1.464,2.014,2.183,3.031a4.593,4.593,0,0,0,2.551,1.867,9.231,9.231,0,0,1,2.422,1.24c.689.458.745.936.476,1.729a3.19,3.19,0,0,1-1.664,1.953,8.446,8.446,0,0,1-1.747.628,9.267,9.267,0,0,0-4.093,1.889c-.682.583-1.309,1.226-1.976,1.827-.13.117-.358.275-.475.233-.866-.315-1.716-.674-2.588-1.026l.041.039-.041-.039L74,34.484l.01-.026m19-1.987c.015-.055.03-.113.044-.168a5.161,5.161,0,0,1-1.774,1.553,2,2,0,0,1-.413.285,17.436,17.436,0,0,1-11.66,2.065,4.943,4.943,0,0,1-.5-.147,9.612,9.612,0,0,1,4.049-2.621,16.955,16.955,0,0,0,3.37-1.256,4.654,4.654,0,0,0,2.308-3.507,2.577,2.577,0,0,0-.741-2.216,7.312,7.312,0,0,0-3.614-2.088,2.611,2.611,0,0,1-1.509-1.093c-.722-1.037-1.417-2.1-2.2-3.091a5.281,5.281,0,0,0-3.16-2.145,13.411,13.411,0,0,0-1.8-.068,3.341,3.341,0,0,1-1.109-.117A7.98,7.98,0,0,1,71.243,15.5a.74.74,0,0,1-.15-.586,3.754,3.754,0,0,0-.184-2.887,1.156,1.156,0,0,1,.368-1.54c.391-.34.6-.328.843.141a5.575,5.575,0,0,1,.276.772,8.025,8.025,0,0,0,.344.98A1.389,1.389,0,0,0,75,12.8a3.283,3.283,0,0,0,.632-.823,7.328,7.328,0,0,0,.622-1.341A4.969,4.969,0,0,1,80.5,7.15c.792-.145,1.579-.309,2.373-.443a5.066,5.066,0,0,0,4.035-3.684c.068-.187.106-.384.2-.729,1.04.441,2.033.851,3.014,1.288a.352.352,0,0,1,.136.144,6.685,6.685,0,0,1,2.118,1.259c9.386,6.558,9.546,20.731.633,27.483" transform="translate(-56.606)" fill="#303030"/>
    <path id="Path_142" data-name="Path 142" d="M323.479,29.861a4.753,4.753,0,0,0,.55,3.838,9.64,9.64,0,0,1,1.122,1.522,2.478,2.478,0,0,1-.182,2.044c-.563,1.266-1.309,2.364-1.294,3.807a5.09,5.09,0,0,0,1.227,3.253c.884,1.023,2.183,1.6,2.906,2.774a5.133,5.133,0,0,1,.159,4.546c-.932,2.624-2.717,5.3-1.567,8.163.352.876,1.789.494,1.433-.4-1.142-2.843,1.127-5.55,1.828-8.2a6.333,6.333,0,0,0-.131-3.958,6.933,6.933,0,0,0-2.413-2.928,4.163,4.163,0,0,1-1.957-3.253c-.021-1.394.931-2.479,1.375-3.741a3.579,3.579,0,0,0-.483-3.451,12.224,12.224,0,0,1-1-1.325,3.454,3.454,0,0,1-.14-2.3c.158-.936-1.274-1.337-1.433-.4" transform="translate(-290.122 -26.309)" fill="#303030"/>
    <path id="Path_143" data-name="Path 143" d="M76.125,119.813A20.365,20.365,0,0,0,79.1,127.3a6.475,6.475,0,0,0,2.978,2.175,31.225,31.225,0,0,1,3.676,1.274c1.264.676,1.541,1.7,2.178,2.868a3.841,3.841,0,0,0,1.012,1.216c.326.258,1.033.565,1.116,1.008.116.62-.821,1.258-1.231,1.6-.516.427-1.067.815-1.546,1.287a4.19,4.19,0,0,0-1.425,3.313c.087.945,1.574.953,1.486,0-.273-2.948,4.5-3.422,4.208-6.321-.116-1.146-1.153-1.491-1.872-2.2-.865-.849-1-2.2-1.862-3.087-1.875-1.94-4.924-1.555-6.875-3.294a8.8,8.8,0,0,1-2.052-3.429,30.968,30.968,0,0,1-1.33-4.289c-.219-.93-1.652-.536-1.433.4" transform="translate(-68.288 -106.68)" fill="#303030"/>
    <path id="Path_144" data-name="Path 144" d="M12.993,328.169c-.778-.533-7.634-5.242-8.768-6.374-1.274-1.274-3.193-5.91-3.549-7.331-.9-3.6-.7-3.893-.526-4.155l.026-.039a1.867,1.867,0,0,1,1.711-.922c.882,0,1.508,1.017,2.662,3.447.137.289.306.645.371.753.078.081.527.516,2.84,2.538a2.724,2.724,0,0,1,.19-.961c.371-.927,1.523-1.025,2.5-.711l.178.056,4.169,4.311c.99.423,5.51,2.393,6.756,3.638,1.416,1.416,1.639,4.51,1.66,4.858l-1.483.088c-.048-.791-.363-3.033-1.227-3.9-.947-.947-4.958-2.761-6.424-3.381l-.14-.06-4.107-4.244a1.606,1.606,0,0,0-.529-.038,1.512,1.512,0,0,0-.033.694l4.418,4.961-1.055,1.043L8.8,318.958c-.062-.054-.544-.471-1.185-1.03-3.6-3.136-3.783-3.364-3.861-3.462a6.211,6.211,0,0,1-.545-1.034,14.156,14.156,0,0,0-1.451-2.593.333.333,0,0,0-.269.143,25.394,25.394,0,0,0,.632,3.12c.346,1.384,2.206,5.688,3.158,6.64.877.877,6.474,4.771,8.556,6.2l-.839,1.226ZM1.395,311.12l-.008.012.008-.012" transform="translate(0 -277.577)" fill="#303030"/>
    <path id="Path_145" data-name="Path 145" d="M124.894,481.466a.758.758,0,0,0,.209.1.55.55,0,0,0,.227.027.613.613,0,0,0,.513-.31,1.1,1.1,0,0,0,.109-.419.8.8,0,0,0,.006-.14,1.011,1.011,0,0,0-.024-.167.906.906,0,0,0-.061-.154.426.426,0,0,0-.565-.148.42.42,0,0,0-.19.246l-.015.109a.415.415,0,0,0,.056.208l0,.009c-.013-.033-.027-.066-.041-.1a.336.336,0,0,1,.023.085c-.005-.036-.01-.073-.014-.109a.8.8,0,0,1-.009.2l.015-.109a.582.582,0,0,1-.036.15l.041-.1a.3.3,0,0,1-.029.05l.065-.084a.191.191,0,0,1-.035.036l.084-.065a.251.251,0,0,1-.045.027l.1-.041a.3.3,0,0,1-.06.015l.109-.015a.31.31,0,0,1-.062,0l.109.015a.332.332,0,0,1-.083-.024l.1.041a.423.423,0,0,1-.083-.049.313.313,0,0,0-.153-.049.423.423,0,0,0-.411.2.416.416,0,0,0-.041.318l.041.1a.417.417,0,0,0,.148.148" transform="translate(-111.886 -430.889)" fill="#303030"/>
    <path id="Path_146" data-name="Path 146" d="M121.709,426.17a1.163,1.163,0,0,0,.131.056.352.352,0,0,0,.047.014,1.381,1.381,0,0,0,.145.021.339.339,0,0,0,.046,0,1.369,1.369,0,0,0,.145-.017.326.326,0,0,0,.045-.009,1.785,1.785,0,0,0,.177-.075.419.419,0,0,0,.035-.024.645.645,0,0,0,.2-.2.261.261,0,0,0,.025-.04,1.234,1.234,0,0,0,.056-.132.229.229,0,0,0,.013-.045,1.21,1.21,0,0,0,.022-.149.362.362,0,0,0,0-.047,1.271,1.271,0,0,0-.018-.153.424.424,0,0,0-.011-.049,1.158,1.158,0,0,0-.059-.143.259.259,0,0,0-.027-.046l-.648.5.011.014-.065-.083a.639.639,0,0,1,.076.124l.065.083a.313.313,0,0,0,.132.085.2.2,0,0,0,.1.027.309.309,0,0,0,.164-.007l.1-.041.083-.065a.46.46,0,0,0,.121-.292,1.177,1.177,0,0,0-.022-.147.791.791,0,0,0-.054-.133.582.582,0,0,0-.112-.152l-.083-.065a.314.314,0,0,0-.153-.049.218.218,0,0,0-.109,0,.311.311,0,0,0-.153.049.473.473,0,0,0-.156.156.481.481,0,0,0-.043.1l-.015.109a.426.426,0,0,0,.026.156c.027.072.061.14.09.21l-.041-.1a.448.448,0,0,1,.03.1l-.015-.109a.25.25,0,0,1,0,.068c.005-.037.01-.073.014-.109a.2.2,0,0,1-.011.042c.013-.033.027-.066.041-.1a.167.167,0,0,1-.022.037l.065-.084a.139.139,0,0,1-.022.021l.083-.065a.281.281,0,0,1-.051.029l.1-.041a1.683,1.683,0,0,0-.2.085.4.4,0,0,0-.2.411.3.3,0,0,0,.049.153.416.416,0,0,0,.246.19.44.44,0,0,0,.318-.041l.027-.013-.1.041a1.214,1.214,0,0,0,.22-.093.624.624,0,0,0,.187-.187.494.494,0,0,0,.034-.075.45.45,0,0,0,.03-.081,1.23,1.23,0,0,0,.018-.136v-.034a1.222,1.222,0,0,0-.017-.136.257.257,0,0,0-.009-.038,2.624,2.624,0,0,0-.1-.247c.013.033.027.066.041.1a.224.224,0,0,1-.016-.046l.015.109v-.012l-.015.109,0-.005c-.013.033-.027.066-.041.1l0,0-.148.148,0,0-.5-.065.016.019-.065-.084a.293.293,0,0,1,.034.057l-.041-.1a.28.28,0,0,1,.015.055l-.015-.109v.008l.769-.208a1.129,1.129,0,0,0-.151-.222.462.462,0,0,0-.292-.121l-.109.015a.31.31,0,0,0-.141.074.2.2,0,0,0-.074.074.323.323,0,0,0-.074.14c-.005.037-.01.073-.014.109a.415.415,0,0,0,.056.208.342.342,0,0,1,.036.063c-.013-.033-.027-.066-.041-.1a.341.341,0,0,1,.023.084c-.005-.037-.01-.073-.014-.109a.364.364,0,0,1,0,.094l.015-.109a.334.334,0,0,1-.024.083l.041-.1a.281.281,0,0,1-.04.068l.065-.083a.336.336,0,0,1-.05.05l.083-.065a.331.331,0,0,1-.074.043l.1-.041a.38.38,0,0,1-.089.024l.109-.014a.39.39,0,0,1-.085,0l.109.015a.358.358,0,0,1-.081-.022l.1.041-.026-.012a.435.435,0,0,0-.318-.041.459.459,0,0,0-.246.19.413.413,0,0,0,.148.565" transform="translate(-109.027 -381.285)" fill="#303030"/>
    <path id="Path_147" data-name="Path 147" d="M211.8,480.009a.574.574,0,0,0,.15.258.86.86,0,0,0,.118.093.358.358,0,0,0,.043.025.8.8,0,0,0,.207.076.983.983,0,0,0,.164.019.8.8,0,0,0,.164-.018.643.643,0,0,0,.194-.074.824.824,0,0,0,.119-.087.473.473,0,0,0,.041-.038.709.709,0,0,0,.153-.267c.013-.04.018-.083.035-.122l-.041.1,0-.005-.148.148.005,0-.208.057h.006l-.208-.057.005,0-.084-.065,0,0-.065-.083,0,.006-.041-.1a.065.065,0,0,1,0,.013c-.005-.037-.01-.073-.014-.109a.391.391,0,0,1,0,.049c.005-.037.01-.073.014-.109a.332.332,0,0,1-.019.076l.041-.1a.337.337,0,0,1-.038.068l.065-.083a.3.3,0,0,1-.054.054l.084-.065a.375.375,0,0,1-.06.035l.1-.041a.3.3,0,0,1-.084.023l.109-.015a.381.381,0,0,1-.069,0,.455.455,0,0,0-.292.121.412.412,0,0,0,0,.583l.084.065a.41.41,0,0,0,.208.056.639.639,0,0,0,.212-.021.672.672,0,0,0,.346-.213.766.766,0,0,0,.15-.264.3.3,0,0,0,.013-.052.957.957,0,0,0,.018-.153.43.43,0,0,0-.408-.454.437.437,0,0,0-.137.014.475.475,0,0,0-.146.077.3.3,0,0,0-.106.116.174.174,0,0,0-.025.054c-.009.022-.02.043-.027.066-.013.041-.021.085-.037.125l.041-.1a.3.3,0,0,1-.034.058l.065-.084a.322.322,0,0,1-.046.045l.084-.065a.4.4,0,0,1-.065.037l.1-.041a.324.324,0,0,1-.077.02l.109-.015a.427.427,0,0,1-.088,0l.109.014a.426.426,0,0,1-.106-.03l.1.041a.359.359,0,0,1-.072-.042l.083.065a.263.263,0,0,1-.038-.038l.065.083a.115.115,0,0,1-.017-.031l.041.1a.2.2,0,0,1-.008-.026.412.412,0,0,0-.754-.1.43.43,0,0,0-.041.318" transform="translate(-190.033 -430.119)" fill="#303030"/>
    <path id="Path_148" data-name="Path 148" d="M128.434,480.948l.005,0-.083-.065a.108.108,0,0,1,.015.015l-.065-.083a.121.121,0,0,1,.011.02c-.013-.033-.027-.066-.041-.1a.177.177,0,0,1,.01.04c-.005-.037-.01-.073-.014-.109a1.087,1.087,0,0,1,0,.116.922.922,0,0,1,0,.13l.015-.109a.2.2,0,0,1-.013.048l.041-.1a.228.228,0,0,1-.016.027l.065-.084a.156.156,0,0,1-.023.023l.084-.065-.011.007a.4.4,0,0,0-.2.411.3.3,0,0,0,.049.153.416.416,0,0,0,.246.19l.109.014a.415.415,0,0,0,.208-.056.5.5,0,0,0,.052-.039c.013-.01.036-.027.051-.04a.622.622,0,0,0,.079-.1.206.206,0,0,0,.014-.026.871.871,0,0,0,.049-.12.849.849,0,0,0,.023-.255v-.076a1.077,1.077,0,0,0-.018-.162.2.2,0,0,0-.005-.027c0-.005,0-.009-.005-.013a1.017,1.017,0,0,0-.044-.1.076.076,0,0,0-.007-.012.447.447,0,0,0-.034-.044c-.012-.014-.024-.031-.036-.046l-.008-.008a.761.761,0,0,0-.092-.071.314.314,0,0,0-.153-.049.423.423,0,0,0-.411.2.416.416,0,0,0-.041.318l.041.1a.416.416,0,0,0,.148.148" transform="translate(-115.046 -430.869)" fill="#303030"/>
    <path id="Path_149" data-name="Path 149" d="M128.285,481.885a.576.576,0,0,0,.162-.072,1.165,1.165,0,0,0,.106-.081.194.194,0,0,0,.025-.026.747.747,0,0,0,.172-.315c.007-.031.01-.063.014-.093s.009-.066.011-.1a.694.694,0,0,0,0-.092.785.785,0,0,0-.029-.176.617.617,0,0,0-.054-.122.515.515,0,0,0-.166-.166.313.313,0,0,0-.153-.049.423.423,0,0,0-.411.2.416.416,0,0,0-.041.318l.041.1a.416.416,0,0,0,.148.148l.005,0-.083-.065.013.014-.065-.084a.1.1,0,0,1,.012.024c-.014-.033-.028-.066-.041-.1a.247.247,0,0,1,.012.054l-.015-.109a.664.664,0,0,1,0,.15l.015-.109a.413.413,0,0,1-.024.091c.014-.033.028-.066.041-.1a.35.35,0,0,1-.039.069l.065-.084a.32.32,0,0,1-.045.046l.083-.065a.343.343,0,0,1-.048.03l.1-.041-.027.01a.431.431,0,0,0-.246.19.313.313,0,0,0-.049.153.319.319,0,0,0,.007.164.413.413,0,0,0,.507.289" transform="translate(-114.642 -431.237)" fill="#303030"/>
    <path id="Path_150" data-name="Path 150" d="M282.025,328.2l-.84-1.226c2.083-1.427,7.679-5.323,8.556-6.2.952-.952,2.812-5.256,3.158-6.64a25.208,25.208,0,0,0,.632-3.12.334.334,0,0,0-.269-.143,14.1,14.1,0,0,0-1.451,2.593,6.209,6.209,0,0,1-.545,1.034c-.078.1-.261.326-3.861,3.463-.641.559-1.122.976-1.185,1.03l-3.836,3.488-1.055-1.043,4.419-4.961a1.484,1.484,0,0,0-.033-.694,1.607,1.607,0,0,0-.529.039l-4.107,4.245-.14.06c-1.465.619-5.477,2.434-6.424,3.381-.864.864-1.183,3.16-1.227,3.9l-1.483-.088c.021-.348.244-3.443,1.66-4.858,1.247-1.247,5.766-3.216,6.756-3.638l4.169-4.311.178-.058c.978-.314,2.13-.217,2.5.711a2.747,2.747,0,0,1,.19.961c1.841-1.611,2.673-2.366,2.842-2.542.066-.112.233-.463.369-.749,1.154-2.431,1.78-3.447,2.662-3.447a1.868,1.868,0,0,1,1.711.922l.026.039c.175.262.373.56-.526,4.155-.355,1.421-2.276,6.058-3.549,7.33-1.134,1.134-7.99,5.841-8.768,6.374m11.6-17.048.008.012Z" transform="translate(-243.893 -277.603)" fill="#303030"/>
    <path id="Path_151" data-name="Path 151" d="M361.416,480.709a.432.432,0,0,1-.084.049l.1-.041a.338.338,0,0,1-.083.024l.109-.015a.31.31,0,0,1-.062,0l.109.015a.3.3,0,0,1-.06-.015l.1.041a.251.251,0,0,1-.045-.027l.083.065a.2.2,0,0,1-.035-.036l.065.084a.3.3,0,0,1-.029-.05l.041.1a.579.579,0,0,1-.036-.15l.015.109a.8.8,0,0,1-.009-.2l-.015.109a.362.362,0,0,1,.023-.085l-.041.1,0-.009a.314.314,0,0,0,.049-.153.424.424,0,0,0-.2-.411.416.416,0,0,0-.318-.041l-.1.041a.417.417,0,0,0-.148.148,1.006,1.006,0,0,0-.062.154,1.027,1.027,0,0,0-.024.167.7.7,0,0,0,.006.14,1.065,1.065,0,0,0,.109.419.614.614,0,0,0,.513.31.586.586,0,0,0,.227-.027.757.757,0,0,0,.21-.1.311.311,0,0,0,.116-.106.372.372,0,0,0,.081-.3.3.3,0,0,0-.049-.153.416.416,0,0,0-.246-.19.407.407,0,0,0-.318.041" transform="translate(-323.716 -430.846)" fill="#303030"/>
    <path id="Path_152" data-name="Path 152" d="M364.022,425.444l-.026.012.1-.041a.365.365,0,0,1-.081.022l.109-.015a.4.4,0,0,1-.085,0l.109.014a.383.383,0,0,1-.089-.024l.1.041a.386.386,0,0,1-.074-.043l.084.065a.334.334,0,0,1-.05-.05l.065.083a.3.3,0,0,1-.04-.068l.041.1a.335.335,0,0,1-.023-.083c.005.037.01.073.014.109a.368.368,0,0,1,0-.094l-.015.109a.357.357,0,0,1,.023-.084l-.042.1a.318.318,0,0,1,.036-.063.3.3,0,0,0,.049-.153.308.308,0,0,0-.007-.164c-.013-.033-.027-.066-.041-.1a.311.311,0,0,0-.106-.116.207.207,0,0,0-.091-.054.318.318,0,0,0-.159-.036l-.109.015a.408.408,0,0,0-.182.106,1.086,1.086,0,0,0-.151.222l.769.208v-.008c-.005.037-.01.073-.014.109a.244.244,0,0,1,.015-.055l-.041.1a.285.285,0,0,1,.033-.057l-.065.084.016-.019-.5.065,0,0-.148-.148,0,0c-.013-.033-.027-.066-.041-.1l0,.005c-.005-.037-.01-.073-.014-.109v.012l.015-.109a.279.279,0,0,1-.016.046c.013-.033.027-.066.041-.1-.035.081-.076.159-.1.244a.766.766,0,0,0-.027.175v.034a1.023,1.023,0,0,0,.018.139.178.178,0,0,0,.009.032.673.673,0,0,0,.054.121l.01.015c.022.031.044.061.069.089a.642.642,0,0,0,.106.084.678.678,0,0,0,.152.069l.072.027-.1-.041a.213.213,0,0,1,.027.013.435.435,0,0,0,.318.042.311.311,0,0,0,.141-.074.3.3,0,0,0,.106-.116.412.412,0,0,0-.148-.565,1.863,1.863,0,0,0-.2-.085l.1.041a.262.262,0,0,1-.052-.029l.084.065-.022-.021.065.084a.134.134,0,0,1-.022-.037l.041.1a.275.275,0,0,1-.011-.042l.015.109a.244.244,0,0,1,0-.067c-.005.036-.01.073-.014.109a.428.428,0,0,1,.029-.1l-.041.1c.031-.07.063-.139.09-.211a.408.408,0,0,0,.027-.153.434.434,0,0,0-.059-.217.445.445,0,0,0-.156-.156l-.1-.041a.308.308,0,0,0-.164-.007.211.211,0,0,0-.1.027.307.307,0,0,0-.132.085.95.95,0,0,0-.088.113.193.193,0,0,0-.023.04,1.02,1.02,0,0,0-.054.129.918.918,0,0,0-.023.151l.015.109a.321.321,0,0,0,.074.141.212.212,0,0,0,.074.074.323.323,0,0,0,.14.074l.109.014.109-.014a.459.459,0,0,0,.246-.19.726.726,0,0,1,.075-.124l-.065.083.011-.014-.648-.5a.73.73,0,0,0-.081.175.793.793,0,0,0-.033.19.763.763,0,0,0,.016.193.71.71,0,0,0,.065.182.7.7,0,0,0,.109.155.692.692,0,0,0,.146.122.76.76,0,0,0,.566.1.289.289,0,0,0,.051-.013,1,1,0,0,0,.141-.061.311.311,0,0,0,.116-.106.372.372,0,0,0,.081-.3.3.3,0,0,0-.049-.153.416.416,0,0,0-.246-.19l-.109-.015a.415.415,0,0,0-.208.056" transform="translate(-325.996 -381.272)" fill="#303030"/>
    <path id="Path_153" data-name="Path 153" d="M272.547,479.734a.263.263,0,0,1-.008.026l.041-.1c-.005.01-.011.021-.017.031l.065-.084a.224.224,0,0,1-.038.038l.083-.065a.3.3,0,0,1-.072.042l.1-.041a.426.426,0,0,1-.106.03l.109-.015a.427.427,0,0,1-.088,0l.109.014a.329.329,0,0,1-.077-.02l.1.041a.405.405,0,0,1-.065-.037l.084.065a.277.277,0,0,1-.046-.045l.065.083a.291.291,0,0,1-.034-.057l.041.1c-.015-.039-.023-.081-.035-.12a.528.528,0,0,0-.117-.21.416.416,0,0,0-.413-.11.452.452,0,0,0-.258.2.471.471,0,0,0-.062.235.636.636,0,0,0,.032.211.73.73,0,0,0,.117.222.7.7,0,0,0,.187.173.637.637,0,0,0,.092.044.762.762,0,0,0,.1.037.916.916,0,0,0,.158.023.28.28,0,0,0,.059,0,.454.454,0,0,0,.292-.121.412.412,0,0,0,0-.583.4.4,0,0,0-.292-.121.392.392,0,0,1-.069,0l.109.014a.338.338,0,0,1-.084-.023l.1.041a.283.283,0,0,1-.059-.035l.083.065a.3.3,0,0,1-.054-.054l.065.084a.368.368,0,0,1-.038-.068l.041.1a.32.32,0,0,1-.02-.076c.005.037.01.073.014.109,0-.016,0-.033,0-.049-.005.037-.01.073-.014.109a.029.029,0,0,1,0-.013l-.041.1,0-.006-.065.084,0-.005-.084.065.005,0-.208.056h.006l-.208-.056.005,0-.148-.148,0,.005-.041-.1c.016.039.022.081.035.122a.71.71,0,0,0,.151.263.612.612,0,0,0,.158.127.9.9,0,0,0,.141.062.522.522,0,0,0,.058.015.881.881,0,0,0,.164.019,1.179,1.179,0,0,0,.159-.019.836.836,0,0,0,.209-.075.62.62,0,0,0,.166-.12.157.157,0,0,0,.021-.016.774.774,0,0,0,.074-.1.462.462,0,0,0,.029-.065.668.668,0,0,0,.03-.075.435.435,0,0,0-.041-.318.413.413,0,0,0-.755.1" transform="translate(-243.982 -430.064)" fill="#303030"/>
    <path id="Path_154" data-name="Path 154" d="M361.226,480.225a.618.618,0,0,0-.1.079.724.724,0,0,0-.068.088l-.007.011a.478.478,0,0,0-.054.144,1.46,1.46,0,0,0-.02.241v.074a.211.211,0,0,0,0,.036.928.928,0,0,0,.021.141,1.383,1.383,0,0,0,.064.146.875.875,0,0,0,.071.091l.011.012a.6.6,0,0,0,.1.08.425.425,0,0,0,.565-.148.416.416,0,0,0,.041-.318.435.435,0,0,0-.19-.246l-.011-.007.083.065a.152.152,0,0,1-.023-.023l.065.084a.23.23,0,0,1-.016-.027l.041.1a.2.2,0,0,1-.013-.048c.005.037.01.073.014.109a.926.926,0,0,1,0-.13,1.1,1.1,0,0,1,0-.116l-.015.109a.193.193,0,0,1,.01-.04c-.014.033-.028.066-.041.1a.075.075,0,0,1,.011-.02l-.065.083a.077.077,0,0,1,.016-.015l-.083.065.005,0a.31.31,0,0,0,.116-.106.372.372,0,0,0,.081-.305.3.3,0,0,0-.049-.153.416.416,0,0,0-.246-.19l-.109-.015a.415.415,0,0,0-.208.056" transform="translate(-323.906 -430.859)" fill="#303030"/>
    <path id="Path_155" data-name="Path 155" d="M360.936,481.027l-.027-.01.1.041a.245.245,0,0,1-.049-.03l.084.065a.272.272,0,0,1-.045-.046l.065.084a.353.353,0,0,1-.04-.069c.014.033.028.066.041.1a.412.412,0,0,1-.024-.091c.005.037.01.073.014.109a.614.614,0,0,1,0-.15c-.005.037-.01.073-.014.109a.245.245,0,0,1,.012-.054l-.041.1a.1.1,0,0,1,.012-.024l-.065.084a.085.085,0,0,1,.013-.014l-.084.065.005,0a.4.4,0,0,0,.2-.411.3.3,0,0,0-.049-.153.416.416,0,0,0-.246-.19l-.109-.014a.415.415,0,0,0-.208.057.713.713,0,0,0-.093.073c-.015.016-.027.035-.041.051a.441.441,0,0,0-.086.162.8.8,0,0,0-.027.172.859.859,0,0,0,.022.29.283.283,0,0,0,.012.042,1.185,1.185,0,0,0,.054.129.735.735,0,0,0,.1.142.633.633,0,0,0,.134.111.308.308,0,0,0,.031.018.834.834,0,0,0,.132.054.308.308,0,0,0,.164.007.3.3,0,0,0,.153-.049.311.311,0,0,0,.116-.106.317.317,0,0,0,.074-.14.421.421,0,0,0-.041-.318.438.438,0,0,0-.246-.19" transform="translate(-323.235 -431.173)" fill="#303030"/>
    <path id="Path_156" data-name="Path 156" d="M108.9,74.8a.413.413,0,1,0-.4-.4.412.412,0,0,0,.4.4" transform="translate(-97.361 -66.383)" fill="#303030"/>
    <path id="Path_157" data-name="Path 157" d="M109.081,74.745a.413.413,0,1,0-.4-.4.412.412,0,0,0,.4.4" transform="translate(-97.522 -66.329)" fill="#303030"/>
    <path id="Path_158" data-name="Path 158" d="M108.841,75.235a.413.413,0,1,0-.4-.4.412.412,0,0,0,.4.4" transform="translate(-97.307 -66.769)" fill="#303030"/>
    <path id="Path_159" data-name="Path 159" d="M108.961,74.985a.413.413,0,1,0-.4-.4.412.412,0,0,0,.4.4" transform="translate(-97.414 -66.544)" fill="#303030"/>
    <path id="Path_160" data-name="Path 160" d="M109.211,74.685a.413.413,0,1,0-.4-.4.412.412,0,0,0,.4.4" transform="translate(-97.639 -66.275)" fill="#303030"/>
    <path id="Path_161" data-name="Path 161" d="M109.5,74.252l.006-.006a.4.4,0,0,0,.085-.452.308.308,0,0,0-.085-.132l-.083-.065a.415.415,0,0,0-.208-.056l-.109.014a.418.418,0,0,0-.183.107l-.006.006a.4.4,0,0,0-.085.451.314.314,0,0,0,.085.132l.084.065a.413.413,0,0,0,.208.056l.109-.015a.417.417,0,0,0,.182-.106" transform="translate(-97.621 -65.988)" fill="#303030"/>
    <path id="Path_162" data-name="Path 162" d="M109.7,74.065a.413.413,0,1,0-.4-.4.412.412,0,0,0,.4.4" transform="translate(-98.078 -65.719)" fill="#303030"/>
    <path id="Path_163" data-name="Path 163" d="M108.661,75.855a.413.413,0,1,0-.4-.4.412.412,0,0,0,.4.4" transform="translate(-97.145 -67.325)" fill="#303030"/>
    <path id="Path_164" data-name="Path 164" d="M109.021,74.985a.413.413,0,1,0-.4-.4.412.412,0,0,0,.4.4" transform="translate(-97.468 -66.544)" fill="#303030"/>
    <path id="Path_165" data-name="Path 165" d="M106.342,48.074a1.844,1.844,0,0,0-.73.6,2.433,2.433,0,0,0-.209.361.634.634,0,0,1-.049.085l0-.006a.387.387,0,0,1-.042.04c-.031.03.036-.023-.024.02l-.1.068a4.4,4.4,0,0,0-1.243,1.374.413.413,0,1,0,.713.417,4.015,4.015,0,0,1,.223-.349c.02-.027.038-.054.059-.079-.046.061.032-.038.033-.04.041-.051.084-.1.129-.149a3.937,3.937,0,0,1,.295-.291c.049-.044.1-.086.151-.127.033-.027-.033.023.026-.02l.1-.069a1.415,1.415,0,0,0,.378-.355c.076-.113.121-.242.2-.357.016-.027.035-.051.052-.077-.048.067.024-.026.03-.032a1.765,1.765,0,0,1,.134-.129c.085-.077-.062.037.034-.027l.063-.041a1.575,1.575,0,0,1,.2-.1.413.413,0,0,0,.148-.565.426.426,0,0,0-.565-.147" transform="translate(-93.227 -43.089)" fill="#303030"/>
    <path id="Path_166" data-name="Path 166" d="M107.766,47.776a4.016,4.016,0,0,1-.644.6l-.04.03-.088.067c-.06.044-.118.089-.177.136-.134.1-.267.205-.394.315a6.223,6.223,0,0,0-.633.663l-.687.8a.422.422,0,0,0,0,.583.416.416,0,0,0,.583,0l.671-.776a6.391,6.391,0,0,1,.651-.683c.228-.2.426-.335.682-.534a4.112,4.112,0,0,0,.66-.614.424.424,0,0,0,0-.583.416.416,0,0,0-.583,0" transform="translate(-94.204 -42.763)" fill="#303030"/>
    <path id="Path_167" data-name="Path 167" d="M105.119,47.782a2.29,2.29,0,0,1-.3.25,2,2,0,0,0-.316.36c-.173.236-.333.481-.505.716s-.315.42-.5.643a3.942,3.942,0,0,1-.267.305,1.511,1.511,0,0,1-.141.128c.034-.027,0,0-.017.011-.036.024-.071.045-.109.066a.416.416,0,0,0-.148.565.421.421,0,0,0,.565.148,2.313,2.313,0,0,0,.646-.573c.2-.247.4-.5.593-.759.177-.237.347-.479.516-.723a1.348,1.348,0,0,1,.231-.275l.033-.027c-.022.015-.021.015,0,0l.136-.1a1.315,1.315,0,0,0,.159-.144.413.413,0,1,0-.567-.6c-.005.005-.011.01-.016.016" transform="translate(-92.214 -42.761)" fill="#303030"/>
    <path id="Path_168" data-name="Path 168" d="M101.033,46.522a7.732,7.732,0,0,1,1.331-1.694A6.348,6.348,0,0,1,104,43.488a.413.413,0,0,0-.417-.713,7.042,7.042,0,0,0-1.8,1.468A8.538,8.538,0,0,0,100.32,46.1c-.253.467.461.885.713.417" transform="translate(-89.97 -38.332)" fill="#303030"/>
    <path id="Path_169" data-name="Path 169" d="M107.924,50.895a4.409,4.409,0,0,1,.573-.7l.668-.778a10.281,10.281,0,0,1,1.283-1.316.414.414,0,0,0,0-.583.422.422,0,0,0-.583,0,10.594,10.594,0,0,0-1.317,1.356l-.672.783a4.752,4.752,0,0,0-.664.825.423.423,0,0,0,.148.565.417.417,0,0,0,.565-.148" transform="translate(-96.154 -42.532)" fill="#303030"/>
    <path id="Path_170" data-name="Path 170" d="M102.5,47.9a9.411,9.411,0,0,1,1.094-1.32,13.716,13.716,0,0,1,1.3-1.258.416.416,0,0,0,0-.583.422.422,0,0,0-.583,0,14.088,14.088,0,0,0-1.338,1.294,10.375,10.375,0,0,0-1.189,1.45.416.416,0,0,0,.148.565.423.423,0,0,0,.565-.148" transform="translate(-91.281 -40.038)" fill="#303030"/>
    <path id="Path_171" data-name="Path 171" d="M107.883,52.244c-.813.861-1.666,1.7-2.41,2.622a.422.422,0,0,0,0,.583.416.416,0,0,0,.583,0c.745-.922,1.6-1.762,2.41-2.622a.413.413,0,1,0-.567-.6c-.005.005-.011.01-.016.016" transform="translate(-94.537 -46.763)" fill="#303030"/>
    <path id="Path_172" data-name="Path 172" d="M128.6,53.945a.413.413,0,1,0-.4-.4.412.412,0,0,0,.4.4" transform="translate(-115.038 -47.665)" fill="#303030"/>
    <path id="Path_173" data-name="Path 173" d="M128.6,54.035a.413.413,0,1,0-.4-.4.412.412,0,0,0,.4.4" transform="translate(-115.038 -47.746)" fill="#303030"/>
    <path id="Path_174" data-name="Path 174" d="M102.321,70.995a.413.413,0,1,0-.4-.4.412.412,0,0,0,.4.4" transform="translate(-91.456 -62.964)" fill="#303030"/>
    <path id="Path_175" data-name="Path 175" d="M102.6,70.815a.413.413,0,1,0-.4-.4.412.412,0,0,0,.4.4" transform="translate(-91.708 -62.802)" fill="#303030"/>
    <path id="Path_176" data-name="Path 176" d="M102.5,70.715a.413.413,0,1,0-.4-.4.412.412,0,0,0,.4.4" transform="translate(-91.618 -62.713)" fill="#303030"/>
    <path id="Path_177" data-name="Path 177" d="M102.881,70.075a.413.413,0,1,0-.4-.4.412.412,0,0,0,.4.4" transform="translate(-91.959 -62.138)" fill="#303030"/>
    <path id="Path_178" data-name="Path 178" d="M109.241,74.865a.413.413,0,1,0-.4-.4.412.412,0,0,0,.4.4" transform="translate(-97.666 -66.437)" fill="#303030"/>
    <g id="Group_11" data-name="Group 11" transform="translate(25.086 9.697)">
      <path id="Path_179" data-name="Path 179" d="M274.667,149.536a.373.373,0,1,0-.363-.363.372.372,0,0,0,.363.363" transform="translate(-271.221 -143.207)" fill="#303030"/>
      <path id="Path_180" data-name="Path 180" d="M274.283,149.185a.4.4,0,0,1-.407-.392v-.026a.445.445,0,0,1,.1-.287.39.39,0,0,1,.3-.132.419.419,0,0,1,0,.837m0-.747a.308.308,0,0,0-.315.3v.026a.351.351,0,0,0,.079.227.3.3,0,0,0,.235.1.328.328,0,0,0,0-.655" transform="translate(-270.836 -142.81)" fill="#303030"/>
      <path id="Path_181" data-name="Path 181" d="M274.667,150.376a.373.373,0,1,0-.363-.363.372.372,0,0,0,.363.363" transform="translate(-271.221 -143.961)" fill="#303030"/>
      <path id="Path_182" data-name="Path 182" d="M274.283,150.006a.4.4,0,0,1-.407-.392v-.027a.445.445,0,0,1,.1-.287.389.389,0,0,1,.3-.132.419.419,0,0,1,0,.837m0-.746a.308.308,0,0,0-.315.3v.026a.351.351,0,0,0,.079.227.3.3,0,0,0,.235.1.328.328,0,0,0,0-.655" transform="translate(-270.836 -143.546)" fill="#303030"/>
      <path id="Path_183" data-name="Path 183" d="M273.837,149.876a.373.373,0,1,0-.362-.362.372.372,0,0,0,.362.362" transform="translate(-270.476 -143.512)" fill="#303030"/>
      <path id="Path_184" data-name="Path 184" d="M275.827,150.206a.373.373,0,1,0-.362-.363.372.372,0,0,0,.362.363" transform="translate(-272.261 -143.808)" fill="#303030"/>
      <path id="Path_185" data-name="Path 185" d="M247.573,100.753a.413.413,0,0,1-.347-.19,12.374,12.374,0,0,0-1.518-1.75L245.6,98.7a4.6,4.6,0,0,1-1.214-1.833,2.045,2.045,0,0,1,.394-2.074,1.836,1.836,0,0,1,1.908-.193,2.672,2.672,0,0,1,1.4,1.352.427.427,0,0,1-.152.569.451.451,0,0,1-.355.032.35.35,0,0,1-.22-.187,1.86,1.86,0,0,0-1.209-1.068.743.743,0,0,0-.992.429,1.97,1.97,0,0,0,.328,1.546,6.535,6.535,0,0,0,.962,1.1c.083.081.166.162.248.244a10.35,10.35,0,0,1,1.244,1.515.36.36,0,0,1,.036.372.465.465,0,0,1-.38.244h-.031m-1.749-6.234a1.449,1.449,0,0,0-.982.348,1.954,1.954,0,0,0-.368,1.979,4.511,4.511,0,0,0,1.191,1.8l.106.109a12.37,12.37,0,0,1,1.529,1.762.319.319,0,0,0,.3.148.372.372,0,0,0,.3-.193.267.267,0,0,0-.03-.28,10.285,10.285,0,0,0-1.233-1.5l-.246-.244a6.584,6.584,0,0,1-.976-1.114,1.992,1.992,0,0,1-.338-1.619.837.837,0,0,1,1.1-.492,1.95,1.95,0,0,1,1.269,1.119.26.26,0,0,0,.164.137.363.363,0,0,0,.281-.024.338.338,0,0,0,.115-.452,2.584,2.584,0,0,0-1.356-1.306,2.218,2.218,0,0,0-.831-.172" transform="translate(-244.276 -94.426)" fill="#303030"/>
      <path id="Path_186" data-name="Path 186" d="M273.453,149.506a.4.4,0,0,1-.407-.392v-.027a.44.44,0,0,1,.1-.287.39.39,0,0,1,.3-.132.419.419,0,0,1,0,.837m0-.747a.308.308,0,0,0-.315.3v.026a.349.349,0,0,0,.079.226.3.3,0,0,0,.235.1.328.328,0,0,0,0-.655" transform="translate(-270.091 -143.097)" fill="#303030"/>
      <path id="Path_187" data-name="Path 187" d="M275.452,149.846a.4.4,0,0,1-.407-.392v-.027a.44.44,0,0,1,.1-.287.39.39,0,0,1,.3-.132.419.419,0,0,1,0,.837m0-.747a.309.309,0,0,0-.315.3v.027a.349.349,0,0,0,.079.226.3.3,0,0,0,.235.1.328.328,0,0,0,0-.655" transform="translate(-271.886 -143.402)" fill="#303030"/>
      <path id="Path_188" data-name="Path 188" d="M275.337,150.376a.373.373,0,1,0-.363-.363.372.372,0,0,0,.363.363" transform="translate(-271.822 -143.961)" fill="#303030"/>
      <path id="Path_189" data-name="Path 189" d="M274.952,150.007a.4.4,0,0,1-.407-.392v-.027a.446.446,0,0,1,.1-.287.417.417,0,0,1,.589-.021c.007.006.013.013.021.021a.434.434,0,0,1,.1.287.4.4,0,0,1-.38.418h-.027m0-.746a.327.327,0,1,0,.314.34v-.013a.309.309,0,0,0-.289-.327h-.026" transform="translate(-271.437 -143.547)" fill="#303030"/>
      <path id="Path_190" data-name="Path 190" d="M274.826,100.813a.47.47,0,0,1-.263-.081.37.37,0,0,1-.126-.508c.005-.009.011-.017.017-.027a11.2,11.2,0,0,1,1.429-1.7l.079-.078a5.618,5.618,0,0,0,1.069-1.292,1.693,1.693,0,0,0,.125-1.518c-.229-.4-.81-.3-1.118-.177a1.882,1.882,0,0,0-1.005,1,.349.349,0,0,1-.22.187.451.451,0,0,1-.355-.032.43.43,0,0,1-.152-.569,2.662,2.662,0,0,1,1.663-1.447,1.681,1.681,0,0,1,1.841.506,2.267,2.267,0,0,1,.107,2.123,5.53,5.53,0,0,1-1.325,1.775,11.125,11.125,0,0,0-1.417,1.649.407.407,0,0,1-.347.19m1.746-5.582a.721.721,0,0,1,.664.332,1.788,1.788,0,0,1-.124,1.608,5.7,5.7,0,0,1-1.084,1.313l-.079.078a11.172,11.172,0,0,0-1.418,1.685.278.278,0,0,0,.054.389.3.3,0,0,0,.03.02.336.336,0,0,0,.471-.066l.012-.017a11.257,11.257,0,0,1,1.428-1.664,5.461,5.461,0,0,0,1.305-1.745,2.172,2.172,0,0,0-.1-2.033A1.587,1.587,0,0,0,276,94.665a2.569,2.569,0,0,0-1.605,1.4.34.34,0,0,0,.115.452.362.362,0,0,0,.281.024.263.263,0,0,0,.164-.137,1.976,1.976,0,0,1,1.055-1.05,1.557,1.557,0,0,1,.567-.116" transform="translate(-271.176 -94.487)" fill="#303030"/>
      <path id="Path_191" data-name="Path 191" d="M278.044,146.95a.2.2,0,1,1-.2.2.2.2,0,0,1,.2-.2" transform="translate(-274.399 -141.556)" fill="#303030"/>
      <g id="Group_10" data-name="Group 10" transform="translate(0.043 0.047)">
        <path id="Path_192" data-name="Path 192" d="M248.428,96.4a2.62,2.62,0,0,0-1.38-1.329,1.785,1.785,0,0,0-1.86.185,1.993,1.993,0,0,0-.381,2.027,4.553,4.553,0,0,0,1.2,1.815,13.233,13.233,0,0,1,1.631,1.865c.267.4.913.024.644-.376a10.258,10.258,0,0,0-1.238-1.508,8.536,8.536,0,0,1-1.216-1.351,1.964,1.964,0,0,1-.333-1.581.787.787,0,0,1,1.047-.461,1.9,1.9,0,0,1,1.238,1.094.375.375,0,0,0,.51.133.382.382,0,0,0,.134-.51" transform="translate(-244.694 -94.898)" fill="#303030"/>
        <path id="Path_193" data-name="Path 193" d="M275.407,96.766a1.936,1.936,0,0,1,1.03-1.026c.37-.148.943-.207,1.175.2a1.68,1.68,0,0,1-.125,1.563,6.064,6.064,0,0,1-1.156,1.381,11.158,11.158,0,0,0-1.423,1.692c-.269.4.377.773.644.377a10.991,10.991,0,0,1,1.422-1.656,5.493,5.493,0,0,0,1.315-1.759,2.214,2.214,0,0,0-.1-2.079,1.616,1.616,0,0,0-1.789-.488,2.625,2.625,0,0,0-1.634,1.422.385.385,0,0,0,.134.51.375.375,0,0,0,.51-.134" transform="translate(-271.634 -94.885)" fill="#303030"/>
        <path id="Path_194" data-name="Path 194" d="M251.29,100.469c-.329-.377-.87-.916-1.388-.534a1.883,1.883,0,0,0-.5,1.484.357.357,0,0,0,.66.18l.444-.747a1.392,1.392,0,0,1,.174-.268c.011-.011.047-.036.05-.042.023-.009.027-.01.016,0-.046.008-.081-.02-.106-.084v-.19c0,.016-.007.033-.01.049.031-.052.061-.1.091-.156.076-.03.083-.035.024-.015l-.05.016a1.468,1.468,0,0,0-.181.077,1.438,1.438,0,0,0-.288.2,1.722,1.722,0,0,0-.394.53c-.172.347-.569,1.181,0,1.367.456.148.836-.464,1.055-.775a3.66,3.66,0,0,1,.745-.912l-.485-.127c.078.118-.739.75-.85.857-.316.3-.894.907-.433,1.335s1.008-.276,1.287-.59c.164-.185.321-.377.483-.564.088-.1.177-.2.269-.3q.063-.068.129-.132c.021-.021.042-.041.065-.061s.027-.018,0-.006l-.342-.449c-.12.524-.676.761-1.038,1.1s-.787,1.052-.342,1.5c.5.509,1.136-.246,1.347-.671.179-.358.313-.983.752-1.111l-.4-.162-.013-.139a1.061,1.061,0,0,1-.056.092c-.033.05-.067.1-.1.149-.066.089-.138.174-.21.257-.17.2-.348.391-.509.6-.292.373-.653.925-.418,1.412a.5.5,0,0,0,.606.275,1.329,1.329,0,0,0,.612-.539,6.916,6.916,0,0,0,.581-1.38,4.559,4.559,0,0,1,.789-1.161.743.743,0,0,1,.488-.321,2.178,2.178,0,0,1,.688-.008c.154.029.165.234.172.369a1.265,1.265,0,0,1-.1.533,2.541,2.541,0,0,1-.9.962,8.943,8.943,0,0,0-1.043,1.21c-.342.385-.8.66-.937,1.188h.684a5.8,5.8,0,0,0-.041-.681,1.259,1.259,0,0,0-.137-.276.452.452,0,0,1-.1-.2,1.05,1.05,0,0,1,.23-.508,6.049,6.049,0,0,1,.387-.538,26.689,26.689,0,0,1,1.9-2.114l-.557-.072c-.011-.016.04-.071,0-.027.008-.008-.027.07-.022.056a1.374,1.374,0,0,1-.134.221,2.484,2.484,0,0,1-.347.38c-.269.251-.569.463-.853.7a2.367,2.367,0,0,0-1.026,1.924c.015.176.151.376.354.354.4-.042.654-.38.9-.661s.452-.55.671-.831a7,7,0,0,1,1.41-1.483l-.534-.306a.641.641,0,0,1-.2.393q-.189.234-.4.458c-.271.3-.56.581-.857.853a5.85,5.85,0,0,0-.8.778,1.2,1.2,0,0,0-.224.491,1.687,1.687,0,0,0-.017.345c0,.027,0,.056,0,.084.006.079-.045.043.009.011h.357a.19.19,0,0,1,.045.265.181.181,0,0,1-.051.049.341.341,0,0,1,.065,0,.918.918,0,0,0,.684-.131,2.979,2.979,0,0,0,.594-.69q.3-.4.6-.813a3.748,3.748,0,0,0,.475-.775,1.633,1.633,0,0,0-.159-1.73.876.876,0,0,0-.866-.187,1.635,1.635,0,0,0-.718.54.364.364,0,0,0,0,.5.358.358,0,0,0,.5,0c.112-.127.456-.563.631-.3a1.184,1.184,0,0,1-.062.954,5.983,5.983,0,0,1-.692,1.016l-.363.488c-.091.121-.2.338-.342.412-.122.066-.339-.008-.484.02a.581.581,0,0,0-.461.386.528.528,0,0,0,.139.536.427.427,0,0,0,.6-.033.421.421,0,0,0,.033-.042.8.8,0,0,0,.166-.529.674.674,0,0,1,.1-.446,4.974,4.974,0,0,1,.784-.744,13.027,13.027,0,0,0,.939-.952,1.931,1.931,0,0,0,.678-1.21.357.357,0,0,0-.363-.352.346.346,0,0,0-.171.046,6.9,6.9,0,0,0-1.415,1.416c-.2.258-.4.519-.61.772-.1.122-.2.244-.311.36-.056.062-.114.123-.173.183l-.1.1c-.037.036-.1.056-.016.047l.354.354c-.066-.784.651-1.3,1.2-1.725a4.676,4.676,0,0,0,.808-.759c.233-.295.545-.759.28-1.13a.36.36,0,0,0-.495-.119.312.312,0,0,0-.062.048,24.717,24.717,0,0,0-2.072,2.336,2.471,2.471,0,0,0-.653,1.3.913.913,0,0,0,.086.4c.046.1.12.185.165.284a.633.633,0,0,1,.023.291,1.86,1.86,0,0,0,.027.407.357.357,0,0,0,.683,0c.081-.309.382-.505.6-.717a8.765,8.765,0,0,0,.724-.9,6.568,6.568,0,0,1,.917-.812,2.345,2.345,0,0,0,.645-.941,1.794,1.794,0,0,0,.058-1.108.931.931,0,0,0-.317-.511,1.117,1.117,0,0,0-.634-.177,1.955,1.955,0,0,0-1.236.246,4.24,4.24,0,0,0-.822.944,4.573,4.573,0,0,0-.609,1.256,3.781,3.781,0,0,1-.238.593,1.469,1.469,0,0,1-.169.258c-.025.029-.051.055-.078.081l-.059.054c-.054.033-.056.037,0,.01l.179.048c.1.045,0,.07.046.011a.712.712,0,0,0,.029-.13,1.311,1.311,0,0,1,.162-.3,5.46,5.46,0,0,1,.457-.562,7.186,7.186,0,0,0,.494-.609.706.706,0,0,0,.138-.768.357.357,0,0,0-.4-.162,1.611,1.611,0,0,0-.953.941c-.091.2-.166.4-.271.59a1.248,1.248,0,0,1-.162.244.764.764,0,0,1-.1.093c-.11.083-.13,0,.075.1.03.054.038.064.027.026-.009-.023-.009-.027,0-.016.009-.025.012-.073.022-.1a.8.8,0,0,1,.139-.244,2.557,2.557,0,0,1,.462-.413,2.1,2.1,0,0,0,.914-1.164.358.358,0,0,0-.257-.437.341.341,0,0,0-.085-.011c-.481.014-.823.535-1.107.869-.147.173-.293.346-.446.513-.076.083-.154.165-.235.244-.044.042-.088.086-.136.126l-.046.041q-.039.02.025-.018l.179.048c.016.166.043.216.081.149l.031-.047c.029-.041.056-.079.088-.118a3.446,3.446,0,0,1,.244-.261c.165-.16.341-.309.512-.462.35-.315.8-.779.471-1.274a.358.358,0,0,0-.485-.127,3.458,3.458,0,0,0-.789.861c-.1.145-.2.294-.3.433-.05.067-.1.131-.16.193-.03.032-.06.064-.09.094l-.038.036c-.046.044-.051.047-.016.01h.19l-.045-.012.156.091-.027-.027.091.156c.007.018-.019.04.009-.008a.778.778,0,0,0,.044-.144c.03-.1.061-.192.1-.284a1.307,1.307,0,0,1,.275-.44,1.129,1.129,0,0,1,.381-.212.466.466,0,0,0,.242-.613c-.006-.013-.012-.027-.02-.04a.687.687,0,0,0-1.079-.07,2.628,2.628,0,0,0-.374.55l-.373.627.66.179a2.17,2.17,0,0,1,.187-.9c.04-.088.02.031-.018-.01.027.029.1.058.13.086a3.211,3.211,0,0,1,.375.373.358.358,0,0,0,.5,0,.362.362,0,0,0,0-.5" transform="translate(-248.922 -99.274)" fill="#303030"/>
      </g>
    </g>
    <path id="Path_195" data-name="Path 195" d="M595.688,161.456a6.282,6.282,0,0,1-2.3-.41,5.369,5.369,0,0,1-3.028-2.913,5.864,5.864,0,0,1,0-4.42,5.345,5.345,0,0,1,1.213-1.754A5.482,5.482,0,0,1,593.4,150.8a6.326,6.326,0,0,1,2.318-.41,6.447,6.447,0,0,1,2.349.417,4.653,4.653,0,0,1,1.808,1.252l-.958.958a4.261,4.261,0,0,0-1.445-.95,4.653,4.653,0,0,0-1.692-.3,4.753,4.753,0,0,0-1.723.309,4.109,4.109,0,0,0-1.375.866,3.854,3.854,0,0,0-.9,1.322,4.291,4.291,0,0,0-.316,1.662,4.227,4.227,0,0,0,.316,1.645,3.921,3.921,0,0,0,.9,1.329,4.051,4.051,0,0,0,1.368.873,4.649,4.649,0,0,0,1.715.309,5.146,5.146,0,0,0,1.662-.27,4.078,4.078,0,0,0,1.476-.9l.881,1.175a5.5,5.5,0,0,1-1.877,1.028,7.146,7.146,0,0,1-2.217.348Zm2.612-1.576v-4.017h1.484v4.219Z" transform="translate(-529.343 -134.946)" fill="#303030"/>
    <path id="Path_196" data-name="Path 196" d="M698.716,162.437l4.9-10.817h1.53l4.914,10.817h-1.623l-4.373-9.952h.618l-4.373,9.952h-1.593Zm2.087-2.7.417-1.236h6.089l.448,1.236Z" transform="translate(-626.962 -136.049)" fill="#303030"/>
    <path id="Path_197" data-name="Path 197" d="M824.816,151.62h1.546v10.817h-1.546Zm1.36,8.205-.077-1.885,6.135-6.32H834l-4.745,5.006-.866.958Zm6.305,2.612-4.435-5.161,1.035-1.144,5.208,6.305h-1.807Z" transform="translate(-740.112 -136.049)" fill="#303030"/>
    <path id="Path_198" data-name="Path 198" d="M587,349.867v-9.473H583.3V339.05h8.948v1.344h-3.709v9.473H587Z" transform="translate(-523.394 -304.231)" fill="#303030"/>
    <path id="Path_199" data-name="Path 199" d="M673.471,372.24a4.759,4.759,0,0,1-2.311-.541,3.9,3.9,0,0,1-1.546-1.483,4.223,4.223,0,0,1-.548-2.164,4.32,4.32,0,0,1,.533-2.164,3.847,3.847,0,0,1,1.469-1.476,4.453,4.453,0,0,1,4.211-.007,3.717,3.717,0,0,1,1.43,1.476,4.565,4.565,0,0,1,.518,2.217c0,.062,0,.133-.008.216s-.013.16-.024.232h-6.97V367.48h6.2l-.6.371a2.751,2.751,0,0,0-.325-1.406,2.487,2.487,0,0,0-.935-.966,2.914,2.914,0,0,0-2.758,0,2.451,2.451,0,0,0-.943.974,2.941,2.941,0,0,0-.34,1.43v.247a2.814,2.814,0,0,0,.379,1.46,2.594,2.594,0,0,0,1.059,1,3.316,3.316,0,0,0,1.561.355,3.408,3.408,0,0,0,1.322-.247,2.891,2.891,0,0,0,1.043-.741l.818.958a3.592,3.592,0,0,1-1.383.989,4.809,4.809,0,0,1-1.846.34Z" transform="translate(-600.357 -326.512)" fill="#303030"/>
    <path id="Path_200" data-name="Path 200" d="M754.7,372.811l3.523-4.574-.015.757-3.354-4.374H756.5l2.565,3.369h-.634L761,364.62h1.623l-3.4,4.4.015-.789,3.554,4.574h-1.684l-2.7-3.585.6.092-2.658,3.493H754.7Z" transform="translate(-677.193 -327.176)" fill="#303030"/>
    <path id="Path_201" data-name="Path 201" d="M837.906,348.972h5.223v1.221h-5.223Zm3.987,8.283a2.622,2.622,0,0,1-1.916-.664,2.534,2.534,0,0,1-.68-1.9v-7.51h1.484v7.448a1.435,1.435,0,0,0,.333,1.02,1.236,1.236,0,0,0,.95.355,1.75,1.75,0,0,0,1.159-.386l.463,1.066a2.148,2.148,0,0,1-.811.432,3.464,3.464,0,0,1-.982.139Z" transform="translate(-751.858 -311.527)" fill="#303030"/>
    <path id="Path_202" data-name="Path 202" d="M910.09,332.4a.989.989,0,0,1-.719-.278.911.911,0,0,1-.285-.68.944.944,0,0,1,.285-.7.987.987,0,0,1,.719-.278,1,1,0,0,1,.719.271.886.886,0,0,1,.285.673.982.982,0,0,1-.278.7A.967.967,0,0,1,910.09,332.4Zm-.741,1.576h1.483v8.19h-1.483Z" transform="translate(-815.728 -296.533)" fill="#303030"/>
    <rect id="Rectangle_12" data-name="Rectangle 12" width="1.483" height="11.467" transform="translate(97.932 34.168)" fill="#303030"/>
    <path id="Path_203" data-name="Path 203" d="M995.606,372.138v-8.19h1.421v2.225l-.139-.557a2.511,2.511,0,0,1,1.144-1.3,4.006,4.006,0,0,1,1.978-.449v1.438a1.083,1.083,0,0,0-.177-.015h-.162a2.519,2.519,0,0,0-1.885.711,2.821,2.821,0,0,0-.7,2.055v4.08h-1.484Z" transform="translate(-893.363 -326.503)" fill="#303030"/>
    <path id="Path_204" data-name="Path 204" d="M1052.53,372.24a4.754,4.754,0,0,1-2.31-.541,3.9,3.9,0,0,1-1.546-1.483,4.224,4.224,0,0,1-.548-2.164,4.32,4.32,0,0,1,.533-2.164,3.853,3.853,0,0,1,1.468-1.476,4.451,4.451,0,0,1,4.21-.007,3.717,3.717,0,0,1,1.429,1.476,4.566,4.566,0,0,1,.518,2.217c0,.062,0,.133-.008.216s-.013.16-.024.232h-6.97V367.48h6.2l-.6.371a2.747,2.747,0,0,0-.324-1.406,2.486,2.486,0,0,0-.935-.966,2.913,2.913,0,0,0-2.758,0,2.458,2.458,0,0,0-.943.974,2.943,2.943,0,0,0-.34,1.43v.247a2.816,2.816,0,0,0,.379,1.46,2.594,2.594,0,0,0,1.059,1,3.314,3.314,0,0,0,1.561.355,3.4,3.4,0,0,0,1.321-.247,2.89,2.89,0,0,0,1.043-.741l.819.958a3.591,3.591,0,0,1-1.384.989,4.809,4.809,0,0,1-1.846.34Z" transform="translate(-940.489 -326.512)" fill="#303030"/>
    <path id="Path_205" data-name="Path 205" d="M1144.542,372.24a4.539,4.539,0,0,1-2.233-.541,3.983,3.983,0,0,1-1.537-1.483,4.485,4.485,0,0,1,0-4.328,3.922,3.922,0,0,1,1.537-1.476,4.6,4.6,0,0,1,2.233-.533,4.347,4.347,0,0,1,1.986.441,3.121,3.121,0,0,1,1.352,1.306l-1.128.726a2.517,2.517,0,0,0-.982-.888,2.767,2.767,0,0,0-1.244-.285,2.88,2.88,0,0,0-1.437.355,2.631,2.631,0,0,0-1,1,2.984,2.984,0,0,0-.371,1.522,3.024,3.024,0,0,0,.371,1.529,2.614,2.614,0,0,0,1,1,2.882,2.882,0,0,0,1.437.355,2.781,2.781,0,0,0,1.244-.285,2.531,2.531,0,0,0,.982-.888l1.128.711a3.231,3.231,0,0,1-1.352,1.305A4.225,4.225,0,0,1,1144.542,372.24Z" transform="translate(-1023.122 -326.512)" fill="#303030"/>
    <path id="Path_206" data-name="Path 206" d="M1217.548,375.911a3.476,3.476,0,0,1-1.144-.193,2.72,2.72,0,0,1-.958-.564l.634-1.112a2.232,2.232,0,0,0,.68.448,2.037,2.037,0,0,0,.789.154,1.41,1.41,0,0,0,.9-.278,2.532,2.532,0,0,0,.664-.989l.51-1.128.154-.186,3.214-7.433h1.453l-3.971,9.009a4.759,4.759,0,0,1-.8,1.36,2.563,2.563,0,0,1-.965.7,3.1,3.1,0,0,1-1.159.208Zm1.947-2.828-3.74-8.453h1.545l3.183,7.294-.989,1.159Z" transform="translate(-1090.626 -327.185)" fill="#303030"/>
    <path id="Path_207" data-name="Path 207" d="M1311.272,372.24a4.539,4.539,0,0,1-2.233-.541,3.982,3.982,0,0,1-1.537-1.483,4.484,4.484,0,0,1,0-4.328,3.921,3.921,0,0,1,1.537-1.476,4.6,4.6,0,0,1,2.233-.533,4.347,4.347,0,0,1,1.986.441,3.121,3.121,0,0,1,1.352,1.306l-1.128.726a2.518,2.518,0,0,0-.982-.888,2.768,2.768,0,0,0-1.244-.285,2.88,2.88,0,0,0-1.437.355,2.631,2.631,0,0,0-1,1,2.984,2.984,0,0,0-.371,1.522,3.024,3.024,0,0,0,.371,1.529,2.614,2.614,0,0,0,1,1,2.882,2.882,0,0,0,1.437.355,2.781,2.781,0,0,0,1.244-.285,2.531,2.531,0,0,0,.982-.888l1.128.711a3.232,3.232,0,0,1-1.352,1.305A4.226,4.226,0,0,1,1311.272,372.24Z" transform="translate(-1172.73 -326.512)" fill="#303030"/>
    <rect id="Rectangle_13" data-name="Rectangle 13" width="1.483" height="11.467" transform="translate(143.689 34.168)" fill="#303030"/>
    <path id="Path_208" data-name="Path 208" d="M1439.62,332.4a.988.988,0,0,1-.719-.278.911.911,0,0,1-.286-.68.944.944,0,0,1,.286-.7.986.986,0,0,1,.719-.278,1,1,0,0,1,.719.271.886.886,0,0,1,.286.673.982.982,0,0,1-.278.7A.968.968,0,0,1,1439.62,332.4Zm-.741,1.576h1.483v8.19h-1.483Z" transform="translate(-1290.878 -296.533)" fill="#303030"/>
    <path id="Path_209" data-name="Path 209" d="M1487.537,363.871a3.887,3.887,0,0,1,1.77.386,2.776,2.776,0,0,1,1.2,1.175,4.105,4.105,0,0,1,.433,1.993v4.713h-1.484v-4.543a2.5,2.5,0,0,0-.579-1.793,2.155,2.155,0,0,0-1.63-.6,2.905,2.905,0,0,0-1.375.309,2.107,2.107,0,0,0-.9.912,3.191,3.191,0,0,0-.317,1.5v4.219h-1.483v-8.19h1.421v2.21l-.232-.587a2.848,2.848,0,0,1,1.236-1.252,4.056,4.056,0,0,1,1.947-.449Z" transform="translate(-1330.853 -326.503)" fill="#303030"/>
    <path id="Path_210" data-name="Path 210" d="M1582.422,371.8a4.418,4.418,0,0,1-2.125-.5,3.833,3.833,0,0,1-1.483-1.4,4.2,4.2,0,0,1,0-4.149,3.81,3.81,0,0,1,1.483-1.383,4.476,4.476,0,0,1,2.125-.495,4.287,4.287,0,0,1,1.916.425,3.253,3.253,0,0,1,1.383,1.305,4.339,4.339,0,0,1,.517,2.225,4.28,4.28,0,0,1-.517,2.21,3.345,3.345,0,0,1-1.383,1.322,4.164,4.164,0,0,1-1.916.441m.186,3.431a7.613,7.613,0,0,1-2.187-.316,4.525,4.525,0,0,1-1.723-.9l.711-1.144a4.216,4.216,0,0,0,1.406.78,5.365,5.365,0,0,0,1.746.285,2.916,2.916,0,0,0,2.133-.68,2.818,2.818,0,0,0,.68-2.07v-1.73l.154-1.623-.077-1.638v-2.241h1.406v7.078a4.192,4.192,0,0,1-1.081,3.184,4.453,4.453,0,0,1-3.168,1.02Zm-.016-4.729a3.024,3.024,0,0,0,1.453-.34,2.545,2.545,0,0,0,1-.943,2.84,2.84,0,0,0,0-2.781,2.488,2.488,0,0,0-1-.935,3.079,3.079,0,0,0-1.453-.332,3.134,3.134,0,0,0-1.46.332,2.483,2.483,0,0,0-1,.935,2.84,2.84,0,0,0,0,2.781,2.537,2.537,0,0,0,1,.943,3.063,3.063,0,0,0,1.46.34" transform="translate(-1416.187 -326.503)" fill="#303030"/>
  </g>
</svg>
