<svg xmlns="http://www.w3.org/2000/svg" width="15" height="292.739" viewBox="0 0 15 292.739">
  <g id="Group_82" data-name="Group 82" transform="translate(-15 -616.261)">
    <path id="Path_1124" data-name="Path 1124" d="M1-1.62a.783.783,0,0,1-.15-.47.443.443,0,0,1,.25-.37.472.472,0,0,1,.37-.12.633.633,0,0,1,.39.2A4.264,4.264,0,0,0,3.17-1.25,3.7,3.7,0,0,0,5-.82a3.379,3.379,0,0,0,1.11-.19,2.183,2.183,0,0,0,.91-.58,1.4,1.4,0,0,0,.36-.99,1.394,1.394,0,0,0-.36-1,2.494,2.494,0,0,0-.93-.6,10.288,10.288,0,0,0-1.21-.38q-.68-.18-1.32-.41a4.62,4.62,0,0,1-1.13-.58,2.82,2.82,0,0,1-.79-.85,2.331,2.331,0,0,1-.3-1.22A2.47,2.47,0,0,1,1.8-9.1a3.067,3.067,0,0,1,1.25-1,4.271,4.271,0,0,1,1.79-.36,4.956,4.956,0,0,1,1.08.13,4.488,4.488,0,0,1,1.14.43,3.426,3.426,0,0,1,1,.82.565.565,0,0,1,.18.41.54.54,0,0,1-.2.41.6.6,0,0,1-.37.12.446.446,0,0,1-.35-.16,3.158,3.158,0,0,0-1.14-.82A3.6,3.6,0,0,0,4.76-9.4a3.1,3.1,0,0,0-1.09.19,2.105,2.105,0,0,0-.85.57,1.443,1.443,0,0,0-.34,1,1.394,1.394,0,0,0,.41.94,2.918,2.918,0,0,0,.98.6,12.316,12.316,0,0,0,1.37.44,11.5,11.5,0,0,1,1.23.38,4.27,4.27,0,0,1,1.04.55,2.471,2.471,0,0,1,.72.83A2.632,2.632,0,0,1,8.5-2.64a2.428,2.428,0,0,1-.49,1.52A3.109,3.109,0,0,1,6.7-.14,4.708,4.708,0,0,1,4.88.2,5.393,5.393,0,0,1,2.79-.22,4.5,4.5,0,0,1,1-1.62Zm14.46-8.84a6.924,6.924,0,0,1,1.76.21,3.8,3.8,0,0,1,1.29.57A.994.994,0,0,1,19-8.9a.651.651,0,0,1-.14.39.447.447,0,0,1-.38.19.605.605,0,0,1-.39-.12,2.88,2.88,0,0,1-.3-.28,1.513,1.513,0,0,0-.43-.3,3.587,3.587,0,0,0-.74-.22,5.429,5.429,0,0,0-1.1-.1,3.745,3.745,0,0,0-2.02.56,4.017,4.017,0,0,0-1.42,1.51,4.362,4.362,0,0,0-.52,2.13,4.605,4.605,0,0,0,.5,2.16,3.825,3.825,0,0,0,1.38,1.51,3.806,3.806,0,0,0,2.06.55,4.279,4.279,0,0,0,1.24-.14,4.072,4.072,0,0,0,.76-.32,1.992,1.992,0,0,0,.55-.43.55.55,0,0,1,.45-.21.488.488,0,0,1,.39.15.574.574,0,0,1,.13.39,1.038,1.038,0,0,1-.47.71,4.222,4.222,0,0,1-1.29.68A5.624,5.624,0,0,1,15.38.2a4.891,4.891,0,0,1-2.63-.7,4.818,4.818,0,0,1-1.76-1.91,5.823,5.823,0,0,1-.63-2.73A5.563,5.563,0,0,1,11-7.8a5.082,5.082,0,0,1,1.79-1.93A4.874,4.874,0,0,1,15.46-10.46ZM21.92,0a.558.558,0,0,1-.44-.18.612.612,0,0,1-.16-.42V-9.56a.592.592,0,0,1,.17-.42.566.566,0,0,1,.43-.18.566.566,0,0,1,.43.18.592.592,0,0,1,.17.42v3l-.3.06a4.583,4.583,0,0,1,.35-1.39,4.76,4.76,0,0,1,.79-1.27,4,4,0,0,1,1.19-.94,3.3,3.3,0,0,1,1.55-.36,1.717,1.717,0,0,1,.7.15.507.507,0,0,1,.34.49.623.623,0,0,1-.16.46.519.519,0,0,1-.38.16.914.914,0,0,1-.39-.1,1.288,1.288,0,0,0-.55-.1,2.19,2.19,0,0,0-1.12.33,3.86,3.86,0,0,0-1.02.89,4.591,4.591,0,0,0-.73,1.25,3.788,3.788,0,0,0-.27,1.39V-.6a.576.576,0,0,1-.18.42A.576.576,0,0,1,21.92,0ZM38.1-5.12a5.607,5.607,0,0,1-.66,2.73,4.939,4.939,0,0,1-1.8,1.9,4.921,4.921,0,0,1-2.6.69,4.9,4.9,0,0,1-2.57-.69,4.988,4.988,0,0,1-1.82-1.9,5.54,5.54,0,0,1-.67-2.73,5.524,5.524,0,0,1,.67-2.74,5.085,5.085,0,0,1,1.82-1.9,4.845,4.845,0,0,1,2.57-.7,4.868,4.868,0,0,1,2.6.7,5.033,5.033,0,0,1,1.8,1.9A5.591,5.591,0,0,1,38.1-5.12Zm-1.2,0a4.589,4.589,0,0,0-.5-2.17,3.868,3.868,0,0,0-1.37-1.5,3.644,3.644,0,0,0-1.99-.55,3.623,3.623,0,0,0-1.96.55,3.917,3.917,0,0,0-1.39,1.5,4.516,4.516,0,0,0-.51,2.17,4.457,4.457,0,0,0,.51,2.16,3.936,3.936,0,0,0,1.39,1.49,3.623,3.623,0,0,0,1.96.55,3.644,3.644,0,0,0,1.99-.55A3.886,3.886,0,0,0,36.4-2.96,4.53,4.53,0,0,0,36.9-5.12ZM41.98-.6a.576.576,0,0,1-.18.42.576.576,0,0,1-.42.18.566.566,0,0,1-.43-.18.592.592,0,0,1-.17-.42V-14.2a.576.576,0,0,1,.18-.42.576.576,0,0,1,.42-.18.566.566,0,0,1,.43.18.592.592,0,0,1,.17.42Zm4.6,0a.576.576,0,0,1-.18.42.576.576,0,0,1-.42.18.566.566,0,0,1-.43-.18.592.592,0,0,1-.17-.42V-14.2a.576.576,0,0,1,.18-.42.576.576,0,0,1,.42-.18.566.566,0,0,1,.43.18.592.592,0,0,1,.17.42Z" transform="translate(29.8 662.841) rotate(-90)" fill="#59b270"/>
    <path id="Icon_awesome-arrow-down" data-name="Icon awesome-arrow-down" d="M13.709-24.52l.725.725a.781.781,0,0,1,0,1.108L8.086-16.337a.781.781,0,0,1-1.108,0L.628-22.688a.781.781,0,0,1,0-1.108l.725-.725a.785.785,0,0,1,1.121.013l3.751,3.937L5.473-249.952a.782.782,0,0,1,.784-.784H7.3a.782.782,0,0,1,.784.784L8.838-20.571l3.751-3.937A.779.779,0,0,1,13.709-24.52Z" transform="translate(14.603 925.106)" fill="#59b270"/>
  </g>
</svg>
